<svg width="300" height="53" viewBox="0 0 300 53" fill="none" xmlns="http://www.w3.org/2000/svg">
<path d="M24.2542 16.674C24.2583 16.6699 24.2437 16.6845 24.2437 16.6845C24.3275 16.8259 24.3747 16.936 24.4375 17.0355C24.862 17.68 25.2864 18.3245 25.7161 18.969C26.4811 20.1113 27.2723 21.2379 28.0111 22.3959C28.6818 23.4334 29.1953 24.5494 29.4049 25.7913C29.4992 26.3415 29.5778 26.8864 29.5464 27.4471C29.4678 28.6732 29.2267 29.8574 28.6556 30.9683C28.2155 31.8276 27.6915 32.6136 26.9946 33.279C26.895 33.3733 26.7693 33.4415 26.6435 33.5358C26.5544 33.431 26.4811 33.3733 26.4287 33.2947C25.9623 32.6031 25.496 31.9114 25.0349 31.2198C24.5214 30.46 24.0131 29.695 23.4996 28.9352C22.9913 28.1702 22.4883 27.3999 21.9801 26.6401C21.3827 25.7441 20.7854 24.8534 20.1881 23.9573C19.7479 23.2971 19.3025 22.6317 18.8623 21.9662C17.9244 20.5462 16.9917 19.121 16.0486 17.701C15.5403 16.936 15.0111 16.1919 14.4976 15.4269C14.0207 14.7143 13.5596 13.9912 13.0828 13.2786C12.8627 12.9484 12.6374 12.6184 12.4174 12.2883L12.4278 12.2778L5.265 1.31078L4.76196 0.540527C4.87724 0.540527 4.99253 0.540527 5.10777 0.551007C5.87804 0.587686 6.64307 0.692482 7.40809 0.802519C8.32506 0.938754 9.23155 1.16407 10.1013 1.49418C10.6568 1.69853 11.1965 1.93956 11.7309 2.18584C12.1711 2.38495 12.606 2.59454 13.0147 2.8513C13.6487 3.24952 14.2723 3.66347 14.8644 4.11934C15.9752 4.98392 16.9341 6.00569 17.7882 7.11652C18.155 7.59334 18.4694 8.11207 18.8047 8.61511C20.6139 11.3068 22.4457 13.9836 24.2489 16.6792L24.2542 16.674Z" fill="white"/>
<path d="M67.954 10.2656H67.9592C67.4981 10.9677 67.0318 11.6646 66.5706 12.3563C65.5227 13.923 64.4799 15.4897 63.4372 17.0564C62.8035 18.0101 62.1694 18.969 61.5302 19.9174C60.4138 21.5837 59.2926 23.2447 58.1818 24.9162C56.3477 27.6723 54.5192 30.4285 52.6851 33.1847C51.8153 34.4893 50.9351 35.7889 50.0652 37.0987C48.86 38.9067 47.6603 40.7248 46.4603 42.5325C45.5276 43.9315 44.6001 45.3253 43.6675 46.7243C42.7976 48.0292 41.9278 49.3338 41.058 50.6387C40.5812 51.3512 40.0993 52.0585 39.617 52.7711C39.5645 52.8499 39.4965 52.9179 39.4493 52.9756C39.2295 53.0176 39.1246 52.8915 39.0302 52.7711C38.4853 52.0742 38.0398 51.3144 37.6784 50.5074C37.3638 49.7949 37.1596 49.0508 37.0339 48.2963C36.9711 47.9139 36.9238 47.5261 36.887 47.1382C36.8346 46.5514 36.929 45.991 36.9711 45.4146C37.0339 44.4659 37.3325 43.6013 37.6888 42.7367C37.8933 42.2443 38.1447 41.7832 38.4173 41.3325C38.5954 41.0443 38.784 40.7561 38.9725 40.4731C39.575 39.5824 40.1673 38.6866 40.7646 37.7904C41.5559 36.6063 42.3469 35.4219 43.1331 34.2378C43.6727 33.4362 44.2071 32.6345 44.747 31.8275C45.1974 31.1568 45.6429 30.4809 46.0936 29.8102C46.6384 28.998 47.1835 28.1858 47.7284 27.3737C48.095 26.8182 48.4621 26.268 48.8339 25.7126C49.0489 25.393 49.2687 25.0734 49.4784 24.7538C49.494 24.7328 49.5045 24.7118 49.5204 24.6909C49.5204 24.6909 49.5256 24.6909 49.5308 24.6961L55.5463 15.6521C55.7297 15.3849 55.913 15.1124 56.0911 14.84C56.5366 14.1798 56.9766 13.5143 57.4169 12.8541C57.9408 12.0576 58.47 11.2664 58.9992 10.4752C59.4395 9.81498 59.8846 9.1495 60.3302 8.49455C60.6079 8.08582 60.875 7.67189 61.1736 7.27364C61.8653 6.34097 62.6358 5.48688 63.5056 4.71137C64.4487 3.86776 65.4758 3.15514 66.5814 2.5578C67.7602 1.91854 68.9915 1.38932 70.3173 1.11161C71.0926 0.949172 71.8736 0.765777 72.6594 0.666221C73.2149 0.598103 73.592 0.556184 74.3782 0.571903L67.9804 10.2813L67.954 10.2656Z" fill="white"/>
<path d="M12.4331 12.2778L12.4226 12.2882C11.7415 11.277 11.0603 10.2604 10.3843 9.24916C10.0071 8.68848 9.63505 8.12259 9.27876 7.55143C9.11632 7.29468 8.91718 7.18989 8.61853 7.20037C8.05264 7.21086 7.48672 7.20037 6.91559 7.20037C5.4694 7.22131 4.13848 6.8231 2.96475 5.9952C1.6967 5.10444 0.837371 3.89927 0.412944 2.40592C0.287188 1.98149 0.192871 1.54659 0.192871 1.09072C0.192871 0.928285 0.203351 0.739651 0.21907 0.535297C0.412944 0.535297 0.612058 0.540537 0.800693 0.535297C1.76482 0.524818 2.73419 0.503858 3.69833 0.540537C4.05463 0.556257 4.41092 0.535297 4.76201 0.535297L12.4331 12.2725V12.2778Z" fill="url(#paint0_linear_41_25)"/>
<path d="M78.67 1.51001C78.5179 2.50558 78.1668 3.42779 77.622 4.26615C77.1345 5.02594 76.5004 5.65471 75.7407 6.14201C74.5931 6.88086 73.3253 7.21618 71.9628 7.20048C71.4076 7.19524 70.852 7.20573 70.2964 7.20048C70.003 7.20048 69.7884 7.29479 69.6207 7.54105C69.3113 8.01787 68.9867 8.48424 68.6721 8.95058C68.3787 9.39073 68.08 9.83088 67.7918 10.271H67.7866L74.1844 0.55636C74.2368 0.5616 77.0664 0.5354 78.1408 0.5354C78.3029 0.5354 78.5387 0.5354 78.7064 0.5354C78.8321 0.86027 78.7116 1.21658 78.67 1.50477V1.51001Z" fill="url(#paint1_linear_41_25)"/>
<defs>
<linearGradient id="paint0_linear_41_25" x1="-1.90306" y1="4.71165" x2="7.52863" y2="4.97364" gradientUnits="userSpaceOnUse">
<stop stop-color="#D9D9D9"/>
<stop offset="1" stop-color="#D9D9D9" stop-opacity="0"/>
</linearGradient>
<linearGradient id="paint1_linear_41_25" x1="79.6026" y1="3.92578" x2="70.9569" y2="3.88707" gradientUnits="userSpaceOnUse">
<stop stop-color="#F0F0F0"/>
<stop offset="1" stop-color="#D9D9D9" stop-opacity="0"/>
</linearGradient>
</defs>
</svg>
