<svg width="300" height="53" viewBox="0 0 300 53" fill="none" xmlns="http://www.w3.org/2000/svg">
<path d="M105.223 19.3028C106.032 18.9092 106.69 18.5803 107.353 18.2729C110.502 16.8387 113.532 17.0436 116.314 19.1195C117.619 20.09 118.218 21.535 118.331 23.158C118.46 25.002 118.072 26.8083 117.873 28.6254C117.711 30.0758 117.609 31.5316 117.382 32.9713C117.118 34.6482 116.929 36.3411 115.727 37.7268C114.778 38.8216 113.581 39.3876 112.249 39.7435C111.952 39.8242 111.602 39.7059 111.176 39.6734C111.225 38.6272 111.225 37.6675 111.316 36.7188C111.456 35.236 111.65 33.7585 111.844 32.2865C112.06 30.6258 112.33 28.9759 112.529 27.3151C112.653 26.2691 112.723 25.2177 112.74 24.1663C112.756 23.007 111.926 21.9287 110.793 21.81C109.822 21.7076 108.793 21.7237 107.844 21.9394C106.226 22.3061 105.083 23.379 104.582 24.9697C104.221 26.1182 103.989 27.3151 103.805 28.5068C103.503 30.4694 103.309 32.4482 103.034 34.411C102.786 36.1793 101.999 37.6514 100.484 38.6597C99.9714 39.0049 99.4108 39.285 98.8609 39.5655C98.3431 39.8299 97.7986 39.8835 97.1354 39.6195C97.0761 39.3443 96.9307 39.0156 96.9628 38.7083C97.0761 37.5381 97.238 36.3737 97.3995 35.2088C97.6532 33.3703 97.9444 31.5316 98.1759 29.6876C98.4025 27.8705 98.5482 26.0481 98.7691 24.231C99.0117 22.2306 99.3082 20.2356 99.578 18.2406C99.5941 18.1166 99.6102 17.9926 99.6266 17.8685C99.8367 15.8358 100.02 13.803 100.263 11.7757C100.446 10.239 100.732 8.71848 100.926 7.18719C101.104 5.77449 101.228 4.35103 101.379 2.93297C101.444 2.31829 101.514 1.69821 101.584 1.08354C101.691 0.134562 102.231 -0.161992 103.136 0.0806435C104.387 0.41494 105.245 1.21294 105.951 2.22661C106.755 3.38587 106.695 4.70691 106.539 6.00635C106.161 9.20374 105.73 12.4011 105.331 15.5985C105.218 16.5206 105.105 17.4426 105.034 18.37C105.013 18.6342 105.142 18.9092 105.229 19.2974L105.223 19.3028Z" fill="white"/>
<path d="M294.102 19.9823C294.959 18.9147 295.638 17.6314 297.175 17.4912C298.065 17.4103 298.96 17.3672 299.957 17.5828C299.968 17.9873 300.028 18.3485 299.984 18.6936C299.709 21.093 299.418 23.4978 299.121 25.8972C298.895 27.7089 298.636 29.5205 298.399 31.3376C298.086 33.764 297.795 36.1958 297.477 38.6273C297.348 39.6249 297.17 39.7761 296.172 39.7975C295.584 39.8082 294.991 39.8136 294.404 39.7868C293.611 39.7489 292.98 39.4363 292.543 38.7299C292.36 38.4333 292.085 38.1907 291.805 37.878C291.136 38.2121 290.565 38.5144 289.983 38.7892C287.362 40.024 284.644 40.2395 281.927 39.2908C279.042 38.2825 277.042 36.2498 275.99 33.3811C274.907 30.4318 275.09 27.4878 276.19 24.5492C277.004 22.3655 278.411 20.6401 280.266 19.3676C281.981 18.1921 283.922 17.3726 286.1 17.4373C287.243 17.4696 288.376 17.4049 289.524 17.6583C291.056 17.9926 292.403 18.6019 293.579 19.6264C293.714 19.745 293.875 19.8313 294.107 19.9823H294.102ZM286.397 35.5162C288.5 35.6241 290.149 34.8963 291.454 33.4081C292.344 32.3944 292.921 31.2406 293.282 29.9087C293.703 28.3505 293.546 26.8785 293.05 25.4335C292.667 24.3173 292.004 23.3468 290.974 22.6566C289.729 21.8209 288.403 21.5675 286.92 21.6969C285.383 21.8317 284.062 22.414 283.049 23.4978C280.773 25.9133 280.396 28.8088 281.285 31.8984C281.603 32.9983 282.186 34.0226 283.243 34.6376C284.246 35.2196 285.297 35.6781 286.397 35.5162Z" fill="white"/>
<path d="M208.451 30.6367C208.009 31.4509 208.311 32.1464 208.64 32.8096C209.551 34.643 211.174 35.3708 213.099 35.5055C214.652 35.6134 216.178 35.5055 217.661 34.8584C219.219 34.1845 220.874 34.2278 222.497 34.7184C222.778 34.8045 223.037 34.9556 223.328 35.085C223.177 36.0608 222.492 36.5678 221.904 37.0691C219.785 38.8971 217.343 39.9108 214.49 39.7975C213.223 39.7489 211.967 39.7543 210.694 39.5224C206.251 38.7138 202.493 34.3518 202.558 29.4181C202.612 25.1693 204.321 21.8641 207.675 19.3784C209.201 18.2515 211.013 17.6692 212.873 17.4858C215.105 17.2648 217.326 17.3403 219.446 18.327C220.459 18.796 221.333 19.3999 222.082 20.1926C223.808 22.0258 225.005 24.1233 225.166 26.7006C225.226 27.628 225.312 28.5554 225.312 29.4828C225.312 30.421 225.037 30.6205 224.115 30.5504C223.78 30.5235 223.436 30.5612 223.096 30.5612C222.384 30.5612 221.678 30.5504 220.966 30.5504C218.89 30.5504 216.809 30.5504 214.733 30.5612C213.93 30.5612 213.121 30.6151 212.318 30.6205C211.056 30.6313 209.794 30.6205 208.446 30.6205L208.451 30.6367ZM208.699 26.1291C209.066 26.2045 209.384 26.3286 209.708 26.3286C212.679 26.3555 215.655 26.3717 218.626 26.3717C218.966 26.3717 219.305 26.2315 219.623 26.1614C219.386 23.3684 216.965 21.8371 215.137 21.6915C211.217 21.3788 209.163 23.5571 208.699 26.1237V26.1291Z" fill="white"/>
<path d="M127.001 17.5127C128.214 17.3294 129.304 17.75 130.366 18.2622C132.496 19.2867 133.795 21.012 134.599 23.2012C135.499 25.6437 136.475 28.0593 137.424 30.4856C137.499 30.6797 137.607 30.8631 137.774 31.2082C138.071 30.8577 138.346 30.6258 138.513 30.3293C139.64 28.3666 140.751 26.3986 141.856 24.4252C142.115 23.9668 142.336 23.4816 142.578 23.0178C144.169 19.966 146.795 18.2946 150.046 17.5127C150.505 17.4049 151.006 17.4965 151.669 17.4965C151.502 17.9872 151.443 18.3485 151.27 18.645C149.755 21.2817 148.219 23.9021 146.692 26.5334C145.291 28.949 143.9 31.3699 142.503 33.7853C140.848 36.6595 139.192 39.5388 137.542 42.418C135.844 45.3779 134.151 48.3436 132.442 51.2929C131.671 52.6303 130.873 52.7543 129.67 51.762C129.455 51.5841 129.271 51.3686 129.066 51.1799C128.112 50.2792 127.724 48.7427 128.549 47.346C129.821 45.1785 131.067 43.0004 132.323 40.8219C133.051 39.5602 133.768 38.2985 134.529 36.9722C134.173 36.1039 133.822 35.2467 133.477 34.3895C132.07 30.9062 130.673 27.423 129.255 23.9452C128.544 22.1929 127.81 20.4459 127.077 18.6989C126.92 18.3269 126.742 17.9603 127.001 17.5019V17.5127Z" fill="white"/>
<path d="M191.338 17.556C192.761 17.4805 194.497 17.1894 195.985 17.6207C195.835 19.0603 195.193 20.1172 194.233 21.05C193.279 21.972 192.028 22.2631 190.804 22.7161C190.701 23.293 190.577 23.8322 190.507 24.3768C190.184 26.9595 189.866 29.5422 189.553 32.1196C189.289 34.3033 189.041 36.4925 188.755 38.6707C188.712 39.0158 188.501 39.3446 188.302 39.8409C187.73 39.7276 187.261 39.7058 186.846 39.5496C185.067 38.8647 184.113 37.4683 183.67 35.6889C183.568 35.2844 183.611 34.8264 183.665 34.4004C183.935 32.2813 184.221 30.1677 184.511 28.0541C184.657 26.9811 184.835 25.9135 184.986 24.8405C185.029 24.5331 185.045 24.2258 185.072 23.9131C185.137 23.1366 184.9 22.5543 184.161 22.1445C182.614 21.2872 182.204 19.4647 183.082 17.5344C183.854 17.4751 184.776 17.4859 185.752 17.4104C185.87 16.9737 185.973 16.4722 186.032 16.0301C186.291 13.9434 186.517 11.8514 186.76 9.76472C186.814 9.301 186.846 8.83192 186.959 8.38439C187.056 8.00693 187.261 7.65648 187.402 7.32218C187.644 7.26826 187.811 7.18197 187.941 7.21434C189.208 7.57019 190.389 8.05009 191.149 9.24169C192.028 10.6112 192.12 12.0778 191.861 13.6253C191.704 14.5419 191.58 15.4639 191.473 16.386C191.44 16.6448 191.349 17.2055 191.338 17.5398" fill="white"/>
<path d="M156.738 35.6672C157.784 34.6696 158.981 34.4541 160.248 34.5024C161.024 34.5349 161.774 34.7236 162.475 35.1066C163.478 35.6565 164.583 35.6133 165.661 35.4407C166.578 35.2953 167.225 34.5671 167.322 33.6613C167.419 32.7987 167.176 32.1032 166.346 31.6286C164.702 30.6958 163.1 29.6822 161.467 28.7278C158.862 27.2073 158.377 23.9074 159.536 21.6051C160.89 18.9307 163.165 17.642 166.114 17.4318C168.233 17.2808 170.191 17.7553 171.964 18.9199C172.574 19.3189 173.124 19.8204 173.647 20.2355C173.55 21.0713 173.037 21.384 172.514 21.6536C171.231 22.3114 169.883 22.2629 168.513 21.9717C168.001 21.8585 167.478 21.7669 166.955 21.7453C166.594 21.7291 166.201 21.7884 165.861 21.9178C165.278 22.1335 164.68 22.4031 164.594 23.1418C164.502 23.9614 164.48 24.7809 165.295 25.3094C165.893 25.6975 166.492 26.0858 167.106 26.447C168.12 27.0509 169.214 27.5362 170.147 28.2425C172.908 30.3346 174.1 33.4619 171.684 36.8642C170.174 38.9884 167.958 39.7166 165.456 39.8188C163.585 39.8946 161.768 39.6734 160.156 38.6976C159.105 38.0612 158.172 37.2255 157.212 36.4437C156.997 36.2711 156.899 35.9531 156.738 35.6779V35.6672Z" fill="white"/>
<path d="M234.554 39.4416C234.554 38.9185 234.5 38.3686 234.564 37.8294C234.758 36.1365 234.996 34.4543 235.222 32.7665C235.362 31.6935 235.513 30.6151 235.648 29.5421C235.88 27.6657 236.096 25.7893 236.338 23.913C236.576 22.0689 236.84 20.2303 237.104 18.3917C237.196 17.7284 237.4 17.4966 238.053 17.4696C238.921 17.4319 239.789 17.4481 240.657 17.4696C241.186 17.4804 241.606 17.7338 241.935 18.1382C242.124 18.3755 242.313 18.6181 242.555 18.9308C242.916 18.7745 243.256 18.6612 243.569 18.4887C245.019 17.6961 246.567 17.2162 248.216 17.475C249.241 17.6368 250.228 18.052 251.22 18.3863C251.403 18.4456 251.533 18.6612 251.689 18.8068C251.57 19.5509 251.091 19.9877 250.568 20.3705C249.381 21.2494 248.006 21.5944 246.561 21.7185C246.437 21.7292 246.313 21.7346 246.189 21.7185C243.58 21.4974 242.706 22.7052 241.94 24.8781C241.606 25.8271 241.531 26.8731 241.369 27.876C241.207 28.852 241.078 29.8387 240.948 30.82C240.765 32.2273 240.641 33.6507 240.404 35.0528C240.177 36.3791 239.466 37.4953 238.452 38.3472C237.799 38.8917 236.985 39.269 236.209 39.6521C235.723 39.8893 235.19 39.8947 234.559 39.4523L234.554 39.4416Z" fill="white"/>
<path d="M258.235 39.5875C258.219 39.0965 258.143 38.6113 258.191 38.1368C258.337 36.7243 258.526 35.3169 258.709 33.9041C259.049 31.3269 259.416 28.7496 259.734 26.1669C259.982 24.1772 260.165 22.1769 260.397 20.1819C260.499 19.2976 260.585 18.4025 261.049 17.5668C262.182 17.3403 263.104 17.7609 263.88 18.451C265.018 19.4593 265.713 20.7156 265.595 22.3009C265.525 23.2552 265.411 24.2042 265.309 25.1586C265.099 27.0996 264.894 29.0407 264.657 30.9764C264.425 32.8852 264.155 34.7884 263.918 36.6918C263.832 37.3657 263.788 38.0507 263.713 38.7246C263.632 39.4524 263.411 39.7654 262.78 39.7815C261.448 39.8137 260.117 39.7815 258.779 39.7654C258.661 39.7654 258.547 39.695 258.235 39.5875Z" fill="white"/>
</svg>
