<?xml version="1.0" encoding="UTF-8"?>
<svg id="Layer_2" data-name="Layer 2" xmlns="http://www.w3.org/2000/svg" viewBox="0 0 457.63 304.34">
  <g id="Layer_2-2" data-name="Layer 2">
    <path d="m437.06,0l-25.41,38.12h7.87c21.05,0,38.11-17.08,38.11-38.12h-20.57Z"/>
    <path d="m431.66,0h0l-202.88,304.34h0c-17-19.44-18.86-47.86-4.54-69.35L352.79,42.19C370.37,15.81,399.95,0,431.66,0Z"/>
    <path d="m20.57,0H0c0,21.05,17.06,38.11,38.11,38.11h7.83L20.57,0Z"/>
    <path d="m25.96,0h0c31.6-.04,61.17,15.8,78.7,42.09l56.7,85.05c13.57,20.36,10.06,47.61-8.23,63.86h0L25.96,0Z"/>
    <path d="m139.08,92.43c1.53-.95,9.33-5.68,20.3-10.69-11.87,4.29-20.05,10.48-20.14,10.56,0,0-.16.13-.16.13Z"/>
    <path d="m139.57,91.95c-.5.41-.8.66-.8.66,0,0,.1-.06.24-.15.12-.11.31-.29.56-.51Z"/>
    <path d="m139.02,92.47s.04-.03.06-.04l.16-.13c.09-.07,8.27-6.27,20.14-10.56,19.09-8.71,47.7-3.21,69.36,5.22,35.57,13.85,64.68,5.23,64.7,5.23-16.02-4.29-34.74-16.47-51.23-30.1-14.26-11.8-29.22-20.2-46.05-23.13-13.35-2.33-27.31-1.56-41.5,2.29-21.94,5.95-37.33,17.31-40,19.38l-17.58,13.1,23.94,32.12,17.74-13.23s.29-.25.8-.66c-.25.23-.43.4-.56.51h.02Z"/>
    <path d="m138.86,92.62l.22-.19s-.05.03-.06.04c-.1.09-.16.15-.16.15Z"/>
    <path d="m321.08,95.53c-6.74,0-12.61-.46-17.9-1.27-5.64,1.43-21.36,5.09-32.76,5.09-14.79,0-29.37-2.76-43.31-8.19-7.18-2.8-14.42-4.98-21.44-6.55,3.31,1.98,6.54,4.36,9.68,7.19,23.27,21.04,45.11,34.71,64.93,40.61,8.22,2.45,14.9,3.21,19.99,3.21,2.74,0,5.02-.5,6.84-.5h27.3v-39.54l-13.32-.05h0Z"/>
  </g>
</svg>