<?xml version="1.0" encoding="UTF-8"?>
<svg id="Layer_2" data-name="Layer 2" xmlns="http://www.w3.org/2000/svg" viewBox="0 0 1583.98 304.34">
  <g id="Layer_1-2" data-name="Layer 1">
    <g>
      <path d="m611.93,45.68l-8.94,74.52c10.48-8.11,21.11-12.17,31.91-12.17s19.54,2.81,26,8.42c6.69,5.53,10.04,12.8,10.04,21.8,0,2.16-.12,4.6-.35,7.32-.24,2.73-.55,5.83-.95,9.29l-4.88,38.57c-1.87,14.81-14.47,25.91-29.39,25.91h0l8.27-67.04c.47-3.6.71-6.85.71-9.75,0-9.86-5.83-14.79-17.49-14.79-16.7,0-26.43,11.23-29.19,33.7l-3.98,31.97c-1.84,14.8-14.43,25.92-29.34,25.92h0l24.58-199.59h0c13.89,0,24.66,12.14,23,25.93Z"/>
      <path d="m839.43,108.02l-100.8,175.01h0c-13.23,0-21.5-14.33-14.88-25.79l29.89-51.73-39.83-97.49h0c16.81,0,31.89,10.33,37.96,26.01l17.47,45.13,25.56-45.12c9.11-16.08,26.16-26.02,44.64-26.02h0Z"/>
      <path d="m950.36,122.74l-.8.78c-7.08,6.87-17.41,8.73-26.71,5.43-2.24-.79-4.42-1.19-6.53-1.19-4.02,0-7.34,1.06-9.98,3.18-2.64,2.11-3.96,4.73-3.96,7.85s1.1,5.61,3.31,7.69c2.21,2.16,6.81,5.05,13.83,8.69,10,5.27,16.7,10.1,20.09,14.48,3.62,4.31,5.43,9.92,5.43,16.83,0,9.95-3.66,17.94-10.99,23.95-7.49,5.94-17.22,8.91-29.19,8.91-16.31,0-29.82-6.81-40.53-20.44h0c8.63-6.01,19.8-6.51,29.21-1.81,3.36,1.68,6.82,2.52,10.38,2.52,4.49,0,8.09-1.11,10.81-3.34,2.72-2.23,4.08-5.12,4.08-8.69,0-3.12-1.14-5.65-3.43-7.57-1.1-.96-3.03-2.3-5.79-4.01-2.76-1.71-6.5-3.75-11.23-6.13-8.35-4.38-14.14-8.65-17.37-12.81-3.23-4.38-4.85-9.73-4.85-16.05,0-9.5,3.7-17.38,11.11-23.62,7.41-6.24,16.82-9.36,28.24-9.36,12.61,0,24.22,4.91,34.86,14.72Z"/>
      <path d="m1034.47,132.01l-10.75,87.33h0c-13.94,0-24.72-12.2-23.01-26.03l7.58-61.29h0c-7.87,0-13.97-6.89-13.01-14.71l1.14-9.28h14.83l6.41-51.64h0c13.89,0,24.64,12.16,22.94,25.95l-3.18,25.69h24.11v.07c-1.69,13.66-13.3,23.92-27.06,23.92h0Z"/>
      <path d="m1121.66,173.02c0,7.74,2.84,14.11,8.51,19.1,5.75,4.99,13.08,7.49,21.98,7.49,6.1,0,11.5-1.01,16.19-3.04,9.99-4.32,21.28-4.49,31.03.35l.4.2c-6.78,8.22-13.75,13.97-20.92,17.23-7.25,3.34-16.31,5-27.18,5-17.25,0-30.94-4.77-41.06-14.32-10.12-9.55-15.18-22.31-15.18-38.29s5.64-30.7,16.92-41.95c11.2-11.17,25.35-16.76,42.47-16.76s29.61,5.07,39.15,15.21c9.7,10.22,14.55,23.9,14.55,41.05,0,1.79-.12,4.7-.35,8.73h-86.5Zm60.27-19.73c-2.76-17.02-12.25-25.53-28.48-25.53-15.36,0-25.36,8.51-30.01,25.53h58.5Z"/>
      <path d="m1293.92,117.59h0c8.82-6.38,17.72-9.57,26.71-9.57,7.88,0,15.05,2.37,21.51,7.1l-1.5,1.69c-7.13,8.04-17.67,11.75-28.38,10.99-.4-.03-.8-.04-1.2-.04-3.31,0-6.22.66-8.74,1.98-2.52,1.32-4.71,3.4-6.56,6.23-1.85,2.84-3.39,6.49-4.61,10.97s-2.18,9.83-2.89,16.06l-3.7,30.41c-1.8,14.8-14.36,25.93-29.27,25.93h0l13.71-111.32h16.47c5.12,0,9.09,4.49,8.47,9.57Z"/>
      <path d="m1410.89,133.94l-10.52,85.39h-26.11l13.7-111.32h0c13.88,0,24.62,12.15,22.93,25.92Zm11.34-78.86c0,3.78-1.38,7.05-4.14,9.81-2.76,2.76-6.07,4.14-9.93,4.14s-7.21-1.42-10.04-4.25c-2.76-2.99-4.14-6.42-4.14-10.28s1.34-7.13,4.02-9.81c2.76-2.76,6.03-4.14,9.81-4.14s7.21,1.46,10.05,4.37c2.91,2.84,4.37,6.22,4.37,10.16Z"/>
      <path d="m1583.98,108.02l-13.7,111.32h-13.97c-6.45,0-11.43-5.66-10.61-12.05h0c-11.19,8.04-22.77,12.05-34.74,12.05-14.73,0-26.75-4.77-36.04-14.32-9.3-9.55-13.94-21.92-13.94-37.11,0-17.52,5.32-31.88,15.95-43.08,10.79-11.2,24.62-16.81,41.47-16.81,18.73,0,28.38,5.33,37.7,14.65h0c1.01-8.36,8.11-14.65,16.53-14.65h11.35Zm-31.79,52.47c0-9.67-2.84-17.52-8.51-23.56-5.67-6.11-13-9.17-21.98-9.17-9.77,0-17.96,3.75-24.58,11.26-6.62,7.58-9.93,16.87-9.93,27.85,0,9.6,2.76,17.45,8.27,23.56,5.51,6.11,12.61,9.17,21.27,9.17,9.61,0,17.92-3.83,24.93-11.49,7.01-7.81,10.51-17.02,10.51-27.62Z"/>
      <path d="m437.06,0l-25.41,38.12h7.87c21.05-.01,38.11-17.08,38.11-38.12h-20.56Z"/>
      <path d="m431.66,0h0l-202.88,304.34h0c-17-19.44-18.86-47.86-4.54-69.35L352.79,42.19C370.37,15.81,399.95,0,431.66,0Z"/>
      <path d="m20.57,0H0c0,21.05,17.06,38.11,38.11,38.11h7.83L20.57,0Z"/>
      <path d="m25.96,0h0c31.6-.04,61.17,15.8,78.7,42.09l56.7,85.05c13.57,20.36,10.06,47.61-8.23,63.86h0S25.96,0,25.96,0Z"/>
      <path d="m139.08,92.43c1.53-.95,9.33-5.68,20.3-10.69-11.87,4.29-20.05,10.48-20.14,10.56l-.16.13Z"/>
      <path d="m139.57,91.95c-.5.41-.8.66-.8.66,0,0,.1-.06.24-.15.12-.11.31-.29.56-.51Z"/>
      <path d="m139.02,92.47s.04-.03.06-.04l.16-.13c.09-.07,8.27-6.27,20.14-10.56,19.09-8.71,47.7-3.21,69.36,5.22,35.57,13.85,64.68,5.23,64.7,5.23-16.02-4.29-34.74-16.47-51.23-30.1-14.26-11.8-29.22-20.2-46.05-23.13-13.35-2.33-27.31-1.56-41.5,2.29-21.94,5.95-37.33,17.31-40,19.38l-17.58,13.1,23.94,32.12,17.74-13.23s.29-.25.8-.66c-.25.23-.43.4-.56.51Z"/>
      <path d="m138.86,92.62l.22-.19s-.05.03-.06.04c-.1.09-.16.15-.16.15Z"/>
      <path d="m1465.72,269.49c-.08.34-.11.67-.11.99v.93c0,1.47.24,2.79.71,3.96.47,1.17,1.13,2.18,1.96,3.03.83.85,1.84,1.5,3.01,1.95,1.17.45,2.48.68,3.92.68,2.2,0,4.05-.36,5.55-1.08,1.5-.72,2.95-1.65,4.35-2.79l1.65,1.99c-1.52,1.25-3.17,2.32-4.95,3.21-1.78.89-3.98,1.34-6.6,1.34-1.86,0-3.56-.29-5.09-.88-1.54-.59-2.86-1.42-3.98-2.5-1.12-1.08-1.99-2.37-2.62-3.87-.62-1.5-.94-3.14-.94-4.92,0-2.46.5-4.86,1.51-7.19,1-2.33,2.38-4.37,4.12-6.11,1.48-1.48,3.17-2.66,5.06-3.56,1.9-.89,3.93-1.34,6.09-1.34,1.82,0,3.41.29,4.78.88,1.36.59,2.51,1.39,3.44,2.42.93,1.02,1.62,2.21,2.07,3.55.46,1.35.68,2.76.68,4.24,0,1.86-.26,3.55-.8,5.06h-23.83Zm4.66-9.73c-2.01,2.01-3.39,4.42-4.15,7.22h21.05c.08-.26.13-.6.17-.99.04-.4.06-.86.06-1.39,0-1.17-.16-2.28-.48-3.33-.32-1.04-.83-1.96-1.51-2.76-.68-.8-1.53-1.43-2.56-1.91-1.02-.47-2.24-.71-3.64-.71-1.78,0-3.42.35-4.92,1.05-1.5.7-2.84,1.64-4.01,2.82Z"/>
      <path d="m1520.13,283.54c-1.93,0-3.57-.46-4.92-1.37s-2.02-2.37-2.02-4.38c0-.46.04-.94.11-1.45.07-.51.15-.96.23-1.34l4.95-18.43h-4.21l.68-2.56h4.21l2.5-9.27h2.79l-2.5,9.27h10.01l-.68,2.56h-10.01l-4.95,18.49c-.08.38-.14.8-.2,1.25s-.08.85-.08,1.19c0,1.21.43,2.1,1.28,2.65.85.55,2,.82,3.44.82,1.21,0,2.62-.3,4.21-.91l-.74,2.73c-.76.3-1.44.5-2.05.6-.61.09-1.29.14-2.05.14Z"/>
      <path d="m1567.43,283.71c-1.59,0-3.15-.28-4.66-.82-1.52-.55-2.86-1.37-4.04-2.45-1.18-1.08-2.12-2.39-2.84-3.92-.72-1.54-1.08-3.31-1.08-5.32,0-2.46.48-4.8,1.45-7,.97-2.2,2.29-4.13,3.95-5.8,1.56-1.55,3.33-2.79,5.32-3.7,1.99-.91,4.1-1.37,6.34-1.37,1.48,0,2.82.19,4.04.58,1.21.39,2.28.92,3.21,1.59.93.68,1.74,1.43,2.42,2.26s1.25,1.71,1.71,2.62l-2.33,1.31c-.46-.76-.96-1.49-1.51-2.19-.55-.7-1.2-1.31-1.93-1.82s-1.58-.92-2.53-1.22c-.95-.3-2.03-.46-3.24-.46-1.75,0-3.41.37-5.01,1.1-1.59.74-3.01,1.73-4.27,2.97-1.4,1.4-2.52,3.04-3.35,4.93-.84,1.89-1.25,3.89-1.25,6,0,1.62.28,3.06.83,4.3.55,1.25,1.28,2.29,2.19,3.14s1.95,1.49,3.13,1.92c1.18.43,2.39.65,3.64.65,1.9,0,3.6-.38,5.12-1.14s2.94-1.76,4.27-3.01l1.88,1.82c-1.48,1.44-3.16,2.64-5.03,3.58s-4.01,1.42-6.4,1.42Z"/>
      <path d="m321.08,95.53c-6.74,0-12.61-.46-17.9-1.27-5.64,1.43-21.36,5.09-32.76,5.09-14.79,0-29.37-2.76-43.31-8.19-7.18-2.8-14.42-4.98-21.44-6.55,3.31,1.98,6.54,4.36,9.68,7.19,23.27,21.04,45.11,34.71,64.93,40.61,8.22,2.45,14.9,3.21,19.99,3.21,2.74,0,5.02-.5,6.84-.5h27.3v-39.54l-13.32-.05Z"/>
    </g>
  </g>
</svg>