<svg width="844" height="153" viewBox="0 0 844 153" fill="none" xmlns="http://www.w3.org/2000/svg">
<path d="M298.047 60.134C300.311 59.0324 302.152 58.1119 304.008 57.2518C312.821 53.2378 321.301 53.8112 329.088 59.621C332.74 62.3372 334.415 66.3814 334.732 70.9236C335.094 76.0844 334.007 81.1396 333.449 86.2251C332.996 90.2843 332.71 94.3587 332.076 98.3878C331.336 103.081 330.808 107.819 327.443 111.697C324.787 114.761 321.437 116.345 317.71 117.341C316.88 117.567 315.899 117.236 314.707 117.145C314.843 114.217 314.843 111.531 315.099 108.876C315.492 104.726 316.035 100.591 316.578 96.4713C317.182 91.8235 317.936 87.2059 318.495 82.5581C318.842 79.6306 319.038 76.688 319.083 73.7454C319.128 70.501 316.805 67.483 313.636 67.151C310.919 66.8643 308.037 66.9095 305.381 67.5132C300.854 68.5393 297.655 71.5422 296.252 75.9939C295.241 79.2081 294.592 82.5581 294.079 85.8931C293.234 91.3859 292.69 96.924 291.921 102.417C291.227 107.366 289.023 111.486 284.783 114.308C283.349 115.274 281.78 116.058 280.241 116.843C278.792 117.583 277.268 117.733 275.412 116.994C275.246 116.224 274.839 115.304 274.929 114.444C275.246 111.169 275.699 107.91 276.151 104.65C276.861 99.5045 277.676 94.3587 278.324 89.1978C278.958 84.1124 279.366 79.0119 279.984 73.9265C280.663 68.328 281.493 62.7446 282.248 57.1613C282.293 56.8142 282.338 56.4671 282.384 56.12C282.972 50.431 283.485 44.742 284.164 39.0681C284.677 34.7673 285.477 30.5119 286.02 26.2263C286.518 22.2726 286.865 18.2888 287.288 14.3201C287.469 12.5998 287.665 10.8644 287.861 9.14411C288.163 6.48823 289.672 5.65827 292.207 6.33733C295.708 7.27292 298.108 9.50628 300.085 12.3432C302.333 15.5876 302.167 19.2848 301.729 22.9215C300.673 31.87 299.466 40.8185 298.349 49.767C298.032 52.3475 297.715 54.9279 297.519 57.5234C297.459 58.2628 297.821 59.0324 298.062 60.1189L298.047 60.134Z" fill="white"/>
<path d="M826.658 62.0354C829.058 59.0475 830.959 55.456 835.26 55.0637C837.75 54.8373 840.255 54.7166 843.046 55.3202C843.077 56.452 843.243 57.463 843.122 58.4288C842.352 65.144 841.537 71.8742 840.707 78.5894C840.074 83.6597 839.349 88.73 838.685 93.8154C837.81 100.606 836.995 107.412 836.105 114.217C835.743 117.009 835.245 117.432 832.453 117.492C830.808 117.522 829.148 117.537 827.504 117.462C825.285 117.356 823.52 116.481 822.297 114.504C821.784 113.674 821.015 112.995 820.23 112.12C818.359 113.055 816.759 113.901 815.13 114.67C807.796 118.126 800.19 118.729 792.585 116.074C784.511 113.252 778.913 107.563 775.97 99.5346C772.937 91.2803 773.45 83.041 776.529 74.8168C778.807 68.7053 782.746 63.8764 787.937 60.3151C792.736 57.0254 798.168 54.7317 804.265 54.9128C807.464 55.0033 810.633 54.8223 813.847 55.5315C818.133 56.4671 821.905 58.1723 825.195 61.0394C825.572 61.3714 826.025 61.6129 826.674 62.0354H826.658ZM805.095 105.51C810.98 105.812 815.597 103.775 819.249 99.6101C821.739 96.7731 823.354 93.5438 824.365 89.8165C825.542 85.4554 825.104 81.3358 823.716 77.2916C822.644 74.1679 820.788 71.4517 817.906 69.5201C814.42 67.1812 810.708 66.4719 806.558 66.8341C802.258 67.2113 798.56 68.8411 795.724 71.8742C789.355 78.6346 788.299 86.7381 790.789 95.3848C791.679 98.4632 793.309 101.33 796.267 103.051C799.074 104.68 802.016 105.963 805.095 105.51V105.51Z" fill="white"/>
<path d="M586.95 91.8537C585.713 94.1323 586.558 96.079 587.478 97.9351C590.028 103.066 594.57 105.103 599.958 105.48C604.304 105.782 608.574 105.48 612.724 103.669C617.085 101.783 621.718 101.904 626.26 103.277C627.045 103.518 627.769 103.941 628.584 104.303C628.161 107.034 626.245 108.453 624.6 109.856C618.67 114.972 611.834 117.809 603.851 117.492C600.305 117.356 596.789 117.371 593.227 116.722C580.793 114.459 570.275 102.251 570.456 88.4433C570.607 76.5522 575.391 67.3019 584.777 60.3453C589.047 57.1914 594.118 55.5617 599.324 55.0486C605.571 54.4299 611.788 54.6412 617.719 57.4027C620.556 58.7155 623 60.4056 625.098 62.6239C629.927 67.7546 633.277 73.6247 633.73 80.8378C633.896 83.4333 634.137 86.0289 634.137 88.6244C634.137 91.2501 633.368 91.8084 630.787 91.6123C629.851 91.5368 628.886 91.6424 627.935 91.6424C625.943 91.6424 623.966 91.6123 621.974 91.6123C616.165 91.6123 610.34 91.6123 604.53 91.6424C602.282 91.6424 600.018 91.7933 597.77 91.8084C594.239 91.8386 590.707 91.8084 586.935 91.8084L586.95 91.8537ZM587.644 79.2383C588.67 79.4495 589.561 79.7966 590.466 79.7966C598.781 79.872 607.11 79.9173 615.425 79.9173C616.376 79.9173 617.327 79.525 618.217 79.3288C617.553 71.5121 610.777 67.2264 605.662 66.819C594.691 65.9438 588.942 72.0402 587.644 79.2232V79.2383Z" fill="white"/>
<path d="M358.997 55.1241C362.392 54.611 365.44 55.7881 368.413 57.2216C374.374 60.0888 378.01 64.9176 380.259 71.0443C382.779 77.8802 385.51 84.6406 388.166 91.4312C388.377 91.9744 388.679 92.4875 389.147 93.4533C389.977 92.4724 390.747 91.8235 391.214 90.9936C394.368 85.5007 397.477 79.9928 400.57 74.4698C401.295 73.1871 401.913 71.829 402.592 70.5312C407.044 61.9901 414.393 57.3122 423.492 55.1241C424.775 54.8223 426.178 55.0788 428.035 55.0788C427.567 56.452 427.401 57.4631 426.918 58.293C422.678 65.6722 418.377 73.006 414.106 80.37C410.183 87.1305 406.29 93.906 402.381 100.666C397.748 108.71 393.116 116.768 388.498 124.826C383.745 133.11 379.006 141.41 374.223 149.664C372.065 153.407 369.832 153.754 366.466 150.977C365.863 150.479 365.35 149.876 364.776 149.348C362.105 146.827 361.019 142.527 363.328 138.618C366.889 132.552 370.375 126.456 373.891 120.359C375.928 116.828 377.935 113.297 380.063 109.585C379.067 107.155 378.086 104.756 377.12 102.357C373.182 92.6082 369.273 82.8599 365.304 73.1267C363.313 68.2224 361.26 63.3332 359.208 58.4439C358.77 57.4027 358.272 56.3766 358.997 55.0939V55.1241Z" fill="white"/>
<path d="M539.054 55.2448C543.037 55.0335 547.897 54.2186 552.061 55.4258C551.639 59.4549 549.843 62.4126 547.157 65.0232C544.486 67.6037 540.985 68.4185 537.56 69.6861C537.273 71.3008 536.926 72.8098 536.73 74.3339C535.824 81.5621 534.934 88.7904 534.059 96.0035C533.319 102.115 532.625 108.242 531.825 114.338C531.705 115.304 531.116 116.224 530.558 117.613C528.958 117.296 527.645 117.235 526.483 116.798C521.504 114.881 518.833 110.973 517.595 105.993C517.309 104.861 517.429 103.579 517.58 102.387C518.335 96.4562 519.135 90.5408 519.949 84.6255C520.357 81.6225 520.855 78.6346 521.277 75.6317C521.398 74.7715 521.443 73.9114 521.519 73.0362C521.7 70.8632 521.036 69.2334 518.969 68.0866C514.638 65.6872 513.491 60.5867 515.95 55.1844C518.108 55.0184 520.689 55.0486 523.42 54.8373C523.752 53.615 524.039 52.2116 524.205 50.9742C524.929 45.1343 525.563 39.2793 526.242 33.4394C526.393 32.1416 526.483 30.8288 526.8 29.5763C527.072 28.5199 527.645 27.5391 528.038 26.6035C528.717 26.4526 529.185 26.2111 529.547 26.3017C533.093 27.2976 536.398 28.6407 538.525 31.9756C540.985 35.8085 541.242 39.9131 540.517 44.244C540.08 46.8093 539.733 49.3897 539.431 51.9702C539.34 52.6945 539.084 54.2639 539.054 55.1995" fill="white"/>
<path d="M442.219 105.933C445.147 103.141 448.497 102.538 452.043 102.673C454.216 102.764 456.314 103.292 458.275 104.364C461.082 105.903 464.176 105.782 467.194 105.299C469.759 104.892 471.57 102.854 471.842 100.319C472.113 97.9049 471.434 95.9583 469.11 94.6303C464.508 92.0197 460.026 89.1827 455.454 86.5118C448.165 82.2563 446.807 73.0211 450.051 66.5776C453.839 59.0928 460.207 55.4862 468.461 54.8977C474.392 54.4752 479.87 55.8031 484.834 59.0626C486.539 60.1793 488.079 61.5827 489.542 62.7446C489.271 65.0836 487.837 65.9589 486.373 66.7134C482.782 68.5544 479.009 68.4186 475.176 67.6037C473.743 67.2868 472.279 67.0303 470.815 66.9699C469.804 66.9246 468.703 67.0906 467.752 67.4528C466.122 68.0564 464.447 68.8109 464.206 70.8783C463.949 73.172 463.889 75.4657 466.168 76.9446C467.843 78.031 469.518 79.1175 471.238 80.1286C474.075 81.8187 477.138 83.1768 479.749 85.1536C487.475 91.0086 490.81 99.761 484.05 109.283C479.824 115.228 473.622 117.266 466.62 117.552C461.384 117.764 456.299 117.145 451.787 114.414C448.844 112.633 446.233 110.294 443.547 108.106C442.944 107.623 442.672 106.733 442.219 105.963V105.933Z" fill="white"/>
<path d="M660.002 116.496C660.002 115.032 659.851 113.493 660.032 111.984C660.575 107.246 661.239 102.538 661.873 97.8144C662.265 94.8114 662.688 91.7934 663.065 88.7904C663.714 83.539 664.318 78.2876 664.997 73.0362C665.661 67.8753 666.4 62.7296 667.139 57.5838C667.396 55.7277 667.969 55.0788 669.795 55.0034C672.225 54.8977 674.654 54.943 677.084 55.0034C678.563 55.0335 679.74 55.7428 680.66 56.8746C681.188 57.5385 681.717 58.2176 682.396 59.0928C683.407 58.6552 684.357 58.3383 685.233 57.8554C689.292 55.6372 693.623 54.2941 698.24 55.0185C701.108 55.4712 703.869 56.6331 706.646 57.5687C707.159 57.7347 707.521 58.3383 707.959 58.7457C707.627 60.8282 706.284 62.0505 704.82 63.1219C701.5 65.5816 697.652 66.5474 693.608 66.8945C693.261 66.9246 692.914 66.9397 692.567 66.8945C685.263 66.2758 682.818 69.656 680.675 75.7374C679.74 78.3932 679.529 81.3207 679.076 84.1275C678.623 86.8589 678.261 89.6204 677.899 92.3668C677.386 96.3053 677.039 100.289 676.375 104.213C675.741 107.925 673.749 111.049 670.912 113.433C669.086 114.957 666.808 116.013 664.635 117.085C663.276 117.749 661.782 117.764 660.017 116.526L660.002 116.496Z" fill="white"/>
<path d="M726.278 116.904C726.233 115.53 726.022 114.172 726.157 112.844C726.565 108.891 727.093 104.952 727.606 100.998C728.557 93.7853 729.583 86.5722 730.473 79.3439C731.167 73.7756 731.68 68.1772 732.329 62.5938C732.616 60.119 732.857 57.614 734.155 55.275C737.324 54.6412 739.905 55.8182 742.078 57.7498C745.262 60.5717 747.208 64.0877 746.876 68.5242C746.68 71.1952 746.363 73.8511 746.076 76.5221C745.488 81.9545 744.915 87.387 744.251 92.8044C743.602 98.1464 742.847 103.473 742.183 108.8C741.942 110.686 741.821 112.603 741.61 114.489C741.383 116.526 740.765 117.402 738.999 117.447C735.272 117.537 731.545 117.447 727.802 117.402C727.47 117.402 727.153 117.205 726.278 116.904V116.904Z" fill="white"/>
<path d="M69.2944 46.5226C69.2944 46.5226 69.2793 46.5377 69.2642 46.5528C69.5056 46.9602 69.6415 47.2771 69.8225 47.5638C71.0448 49.4199 72.2672 51.276 73.5046 53.1321C75.7077 56.4218 77.9864 59.6662 80.1141 63.0011C82.0456 65.989 83.5245 69.2032 84.1281 72.7796C84.3997 74.3641 84.6261 75.9335 84.5355 77.5481C84.3092 81.0793 83.615 84.4896 81.9702 87.6888C80.7026 90.1636 79.1936 92.4271 77.1866 94.3436C76.8999 94.6152 76.5377 94.8114 76.1755 95.083C75.919 94.7812 75.7077 94.6152 75.5568 94.3888C74.2138 92.3969 72.8708 90.405 71.5428 88.4131C70.064 86.225 68.6002 84.0218 67.1214 81.8338C65.6576 79.6306 64.209 77.4123 62.7452 75.2242C61.0249 72.6438 59.3046 70.0785 57.5844 67.498C56.3168 65.5967 55.0341 63.6802 53.7665 61.7637C51.0654 57.6743 48.3793 53.5697 45.6631 49.4803C44.1993 47.2771 42.6752 45.1343 41.1964 42.9311C39.8231 40.8788 38.4952 38.7964 37.122 36.7441C36.4882 35.7934 35.8393 34.8428 35.2055 33.8921L35.2357 33.8619L14.6074 2.27802L13.1587 0.0597534C13.4907 0.0597534 13.8227 0.0597534 14.1546 0.0899339C16.3729 0.195566 18.5761 0.49737 20.7793 0.814265C23.4201 1.20661 26.0307 1.85549 28.5356 2.80618C30.1352 3.3947 31.6895 4.08885 33.2287 4.79809C34.4963 5.37152 35.7488 5.97513 36.9258 6.71455C38.7517 7.86141 40.5475 9.05354 42.2527 10.3664C45.4518 12.8563 48.2133 15.7989 50.673 18.998C51.7293 20.3712 52.6348 21.8651 53.6005 23.3138C54.8379 25.1548 56.0602 27.026 57.2976 28.867C57.358 28.9576 57.4334 29.0632 57.4938 29.1537C57.4938 29.1537 57.4938 29.1537 57.4938 29.1688C57.5693 29.2745 57.6447 29.3801 57.7353 29.5159C57.7353 29.5159 57.7353 29.5159 57.7503 29.5159C58.2031 29.3046 58.5501 29.1688 58.8519 28.9727C61.9907 26.8298 65.3709 25.1246 68.8266 23.5402C72.9311 21.6539 77.2168 20.341 81.6533 19.6016C84.0074 19.1942 86.4067 19.0282 88.8061 18.8622C91.7637 18.666 94.7214 18.9075 97.6188 19.5111C100.818 20.175 103.987 20.9446 106.945 22.4084C109.736 23.7816 112.452 25.2454 115.048 26.9204C115.772 27.3882 116.451 27.9465 117.13 28.4747C117.719 28.9425 118.323 29.4103 118.926 29.863C118.549 29.8781 118.172 29.8932 117.779 29.9233C114.037 30.1799 110.31 30.4515 106.628 31.0853C99.7012 32.2472 93.0162 34.2844 86.5878 37.227C83.4792 38.6606 80.4008 40.1545 77.4129 41.8144C76.1303 42.3577 74.8778 42.9613 73.6404 43.6102C72.4633 44.2289 71.3467 44.9381 70.23 45.6474C69.8829 45.8586 69.6113 46.2057 69.2793 46.5377L69.2944 46.5226Z" fill="white"/>
<path d="M195.146 28.0673H195.161C193.833 30.0893 192.49 32.0963 191.162 34.0883C188.144 38.6002 185.141 43.1122 182.138 47.6242C180.313 50.3706 178.487 53.1321 176.646 55.8635C173.431 60.6622 170.202 65.4458 167.003 70.2596C161.721 78.197 156.455 86.1345 151.173 94.072C148.668 97.8294 146.133 101.572 143.628 105.344C140.157 110.551 136.702 115.787 133.246 120.993C130.56 125.022 127.889 129.036 125.203 133.065C122.698 136.823 120.193 140.58 117.688 144.338C116.315 146.39 114.927 148.427 113.538 150.479C113.387 150.706 113.191 150.902 113.055 151.068C112.422 151.189 112.12 150.826 111.848 150.479C110.279 148.472 108.996 146.284 107.955 143.96C107.049 141.908 106.461 139.765 106.099 137.592C105.918 136.491 105.782 135.374 105.676 134.257C105.525 132.567 105.797 130.953 105.918 129.293C106.099 126.561 106.959 124.071 107.985 121.581C108.574 120.163 109.298 118.835 110.083 117.537C110.596 116.707 111.139 115.877 111.682 115.062C113.417 112.497 115.123 109.917 116.843 107.336C119.122 103.926 121.4 100.515 123.664 97.1051C125.218 94.7963 126.757 92.4875 128.312 90.1636C129.609 88.232 130.892 86.2854 132.19 84.3538C133.759 82.0149 135.329 79.6759 136.898 77.3369C137.954 75.7373 139.011 74.1528 140.082 72.5533C140.701 71.6328 141.334 70.7123 141.938 69.7918C141.983 69.7314 142.013 69.671 142.059 69.6107C142.059 69.6107 142.074 69.6107 142.089 69.6258L159.413 43.58C159.941 42.8104 160.469 42.0257 160.982 41.241C162.265 39.3397 163.532 37.4232 164.8 35.5218C166.309 33.2281 167.833 30.9495 169.357 28.6709C170.625 26.7695 171.907 24.853 173.19 22.9668C173.99 21.7897 174.759 20.5976 175.619 19.4507C177.611 16.7647 179.83 14.305 182.335 12.0716C185.051 9.64207 188.009 7.5898 191.193 5.86951C194.588 4.0285 198.134 2.50439 201.952 1.70461C204.185 1.23681 206.434 0.70865 208.697 0.421936C210.297 0.225763 211.383 0.105041 213.647 0.150311L195.222 28.1125L195.146 28.0673Z" fill="white"/>
<path d="M160.289 43.5499L142.965 69.5956C142.965 69.5956 142.95 69.5956 142.935 69.5805C143.327 68.9769 143.674 68.3582 143.991 67.8451C143.735 67.1359 143.237 67.1359 142.814 67.0454C138.574 66.2456 134.59 64.7215 130.742 62.7899C125.279 60.0586 120.179 56.7538 115.395 52.936C113.313 51.2761 111.23 49.5859 109.163 47.8807C108.363 47.2168 107.594 46.5075 106.824 45.7983C102.614 41.9805 97.7849 39.4302 92.0657 38.9171C88.8364 38.6304 85.6071 38.9021 82.4683 39.898C80.748 40.4413 79.0579 41.06 77.4131 41.7843C80.401 40.1244 83.4794 38.6304 86.588 37.1969C93.0013 34.2543 99.6863 32.2171 106.628 31.0551C110.31 30.4213 114.052 30.1648 117.779 29.8932C118.157 29.863 118.534 29.8479 118.926 29.8328C119.53 30.3006 120.149 30.7684 120.752 31.2362C124.193 33.9374 127.528 36.7743 131.346 38.9473C133.971 40.4413 136.537 42.0408 139.238 43.3989C142.316 44.9532 145.591 45.9945 149.016 46.5981C151.521 47.0357 154.041 47.2319 156.561 47.4733C157.271 47.5488 157.754 47.2922 158.146 46.7188C158.855 45.6625 159.579 44.5911 160.289 43.5197V43.5499Z" fill="url(#paint0_linear_88_342)"/>
<path d="M35.2508 33.8619L35.2206 33.8921C33.2589 30.9797 31.2972 28.0522 29.3505 25.1398C28.264 23.5251 27.1926 21.8954 26.1665 20.2505C25.6987 19.5111 25.1252 19.2093 24.2651 19.2395C22.6354 19.2697 21.0056 19.2395 19.3608 19.2395C15.1959 19.2998 11.363 18.153 7.98274 15.7687C4.3309 13.2034 1.8561 9.73264 0.63379 5.43192C0.271624 4.20961 0 2.95712 0 1.64427C0 1.17647 0.0301805 0.633222 0.0754512 0.0447022C0.63379 0.0447022 1.20722 0.0597925 1.75047 0.0447022C4.52707 0.0145218 7.31877 -0.0458392 10.0954 0.0597925C11.1215 0.105063 12.1476 0.0447022 13.1587 0.0447022L35.2508 33.8468V33.8619Z" fill="url(#paint1_linear_88_342)"/>
<path d="M226.007 2.85146C225.569 5.71861 224.558 8.37449 222.989 10.7889C221.585 12.977 219.759 14.7878 217.571 16.1912C214.266 18.319 210.615 19.2847 206.691 19.2395C205.092 19.2244 203.492 19.2546 201.892 19.2395C201.047 19.2395 200.429 19.5111 199.946 20.2203C199.055 21.5935 198.12 22.9366 197.214 24.2796C196.369 25.5472 195.509 26.8148 194.679 28.0823H194.664L213.089 0.105039C213.24 0.120129 221.389 0.0446777 224.483 0.0446777C224.95 0.0446777 225.629 0.0446777 226.112 0.0446777C226.474 0.980273 226.127 2.00641 226.007 2.83637V2.85146Z" fill="url(#paint2_linear_88_342)"/>
<path d="M742.515 43.8215C747.066 43.8215 750.754 40.1326 750.754 35.5822C750.754 31.0318 747.066 27.343 742.515 27.343C737.965 27.343 734.276 31.0318 734.276 35.5822C734.276 40.1326 737.965 43.8215 742.515 43.8215Z" fill="white"/>
<defs>
<linearGradient id="paint0_linear_88_342" x1="141.848" y1="44.8813" x2="90.631" y2="42.742" gradientUnits="userSpaceOnUse">
<stop stop-color="white"/>
<stop offset="1" stop-color="white" stop-opacity="0"/>
</linearGradient>
<linearGradient id="paint1_linear_88_342" x1="-6.0361" y1="12.0722" x2="21.1263" y2="12.8267" gradientUnits="userSpaceOnUse">
<stop stop-color="#D9D9D9"/>
<stop offset="1" stop-color="#D9D9D9" stop-opacity="0"/>
</linearGradient>
<linearGradient id="paint2_linear_88_342" x1="228.693" y1="9.80866" x2="203.794" y2="9.69718" gradientUnits="userSpaceOnUse">
<stop stop-color="#F0F0F0"/>
<stop offset="1" stop-color="#D9D9D9" stop-opacity="0"/>
</linearGradient>
</defs>
</svg>
