<svg id="eHZ4RiQg7oX1" xmlns="http://www.w3.org/2000/svg" xmlns:xlink="http://www.w3.org/1999/xlink"
    viewBox="0 0 844 153" shape-rendering="geometricPrecision" text-rendering="geometricPrecision"
    style="background-color:transparent">
    <style>
        <![CDATA[
        #eHZ4RiQg7oX2_ts {
            animation: eHZ4RiQg7oX2_ts__ts 4000ms linear infinite normal forwards
        }

        @keyframes eHZ4RiQg7oX2_ts__ts {
            0% {
                transform: translate(372.641102px, 76.402607px) scale(0.341335, 0.341335);
                animation-timing-function: cubic-bezier(0.42, 0, 1, 1)
            }

            100% {
                transform: translate(372.641102px, 76.402607px) scale(1.271795, 1.271795)
            }
        }

        #eHZ4RiQg7oX2 {
            animation: eHZ4RiQg7oX2_c_o 4000ms linear infinite normal forwards
        }

        @keyframes eHZ4RiQg7oX2_c_o {
            0% {
                opacity: 0
            }

            12.5% {
                opacity: 1
            }

            100% {
                opacity: 1
            }
        }

        #eHZ4RiQg7oX4 {
            animation: eHZ4RiQg7oX4_c_o 4000ms linear infinite normal forwards
        }

        @keyframes eHZ4RiQg7oX4_c_o {
            0% {
                opacity: 1
            }

            52.5% {
                opacity: 1
            }

            60% {
                opacity: 0
            }

            100% {
                opacity: 0
            }
        }

        #eHZ4RiQg7oX5 {
            animation: eHZ4RiQg7oX5_c_o 4000ms linear infinite normal forwards
        }

        @keyframes eHZ4RiQg7oX5_c_o {
            0% {
                opacity: 1
            }

            40% {
                opacity: 1
            }

            45% {
                opacity: 0
            }

            100% {
                opacity: 0
            }
        }

        #eHZ4RiQg7oX6 {
            animation: eHZ4RiQg7oX6_c_o 4000ms linear infinite normal forwards
        }

        @keyframes eHZ4RiQg7oX6_c_o {
            0% {
                opacity: 1
            }

            60% {
                opacity: 1
            }

            67.5% {
                opacity: 0
            }

            100% {
                opacity: 0
            }
        }

        #eHZ4RiQg7oX7 {
            animation: eHZ4RiQg7oX7_c_o 4000ms linear infinite normal forwards
        }

        @keyframes eHZ4RiQg7oX7_c_o {
            0% {
                opacity: 1
            }

            45% {
                opacity: 1
            }

            52.5% {
                opacity: 0
            }

            100% {
                opacity: 0
            }
        }

        #eHZ4RiQg7oX8 {
            animation: eHZ4RiQg7oX8_c_o 4000ms linear infinite normal forwards
        }

        @keyframes eHZ4RiQg7oX8_c_o {
            0% {
                opacity: 1
            }

            50% {
                opacity: 1
            }

            55% {
                opacity: 0
            }

            100% {
                opacity: 0
            }
        }

        #eHZ4RiQg7oX9 {
            animation: eHZ4RiQg7oX9_c_o 4000ms linear infinite normal forwards
        }

        @keyframes eHZ4RiQg7oX9_c_o {
            0% {
                opacity: 1
            }

            80% {
                opacity: 1
            }

            90% {
                opacity: 0
            }

            100% {
                opacity: 0
            }
        }

        #eHZ4RiQg7oX10 {
            animation: eHZ4RiQg7oX10_c_o 4000ms linear infinite normal forwards
        }

        @keyframes eHZ4RiQg7oX10_c_o {
            0% {
                opacity: 1
            }

            72.5% {
                opacity: 1
            }

            80% {
                opacity: 0
            }

            100% {
                opacity: 0
            }
        }

        #eHZ4RiQg7oX11 {
            animation: eHZ4RiQg7oX11_c_o 4000ms linear infinite normal forwards
        }

        @keyframes eHZ4RiQg7oX11_c_o {
            0% {
                opacity: 1
            }

            62.5% {
                opacity: 1
            }

            70% {
                opacity: 0
            }

            100% {
                opacity: 0
            }
        }

        #eHZ4RiQg7oX12 {
            animation: eHZ4RiQg7oX12_c_o 4000ms linear infinite normal forwards
        }

        @keyframes eHZ4RiQg7oX12_c_o {
            0% {
                opacity: 1
            }

            62.5% {
                opacity: 1
            }

            70% {
                opacity: 0
            }

            100% {
                opacity: 0
            }
        }

        #eHZ4RiQg7oX13 {
            animation: eHZ4RiQg7oX13_c_o 4000ms linear infinite normal forwards
        }

        @keyframes eHZ4RiQg7oX13_c_o {
            0% {
                opacity: 1
            }

            35% {
                opacity: 1
            }

            45% {
                opacity: 0
            }

            100% {
                opacity: 0
            }
        }
        ]]>
    </style>
    <defs>
        <linearGradient id="eHZ4RiQg7oX14-fill" x1="-6.0361" y1="12.0722" x2="21.1263" y2="12.8267" spreadMethod="pad"
            gradientUnits="userSpaceOnUse" gradientTransform="translate(0 0)">
            <stop id="eHZ4RiQg7oX14-fill-0" offset="0%" stop-color="#d9d9d9" />
            <stop id="eHZ4RiQg7oX14-fill-1" offset="100%" stop-color="rgba(217,217,217,0)" />
        </linearGradient>
        <linearGradient id="eHZ4RiQg7oX15-fill" x1="141.848" y1="44.8813" x2="90.631" y2="42.742" spreadMethod="pad"
            gradientUnits="userSpaceOnUse" gradientTransform="translate(0 0)">
            <stop id="eHZ4RiQg7oX15-fill-0" offset="0%" stop-color="#fff" />
            <stop id="eHZ4RiQg7oX15-fill-1" offset="100%" stop-color="rgba(255,255,255,0)" />
        </linearGradient>
        <linearGradient id="eHZ4RiQg7oX18-fill" x1="228.693" y1="9.80866" x2="203.794" y2="9.69718" spreadMethod="pad"
            gradientUnits="userSpaceOnUse" gradientTransform="translate(0 0)">
            <stop id="eHZ4RiQg7oX18-fill-0" offset="0%" stop-color="#f0f0f0" />
            <stop id="eHZ4RiQg7oX18-fill-1" offset="100%" stop-color="rgba(217,217,217,0)" />
        </linearGradient>
    </defs>
    <g id="eHZ4RiQg7oX2_ts" transform="translate(372.641102,76.402607) scale(0.341335,0.341335)">
        <g id="eHZ4RiQg7oX2" transform="translate(-421.582795,-76.402596)" opacity="0">
            <g transform="translate(0 0.000001)">
                <path id="eHZ4RiQg7oX4"
                    d="M298.047,60.134c2.264-1.1016,4.105-2.0221,5.961-2.8822c8.813-4.014,17.293-3.4406,25.08,2.3692c3.652,2.7162,5.327,6.7604,5.644,11.3026.362,5.1608-.725,10.216-1.283,15.3015-.453,4.0592-.739,8.1336-1.373,12.1627-.74,4.6932-1.268,9.4312-4.633,13.3092-2.656,3.064-6.006,4.648-9.733,5.644-.83.226-1.811-.105-3.003-.196.136-2.928.136-5.614.392-8.269.393-4.15.936-8.285,1.479-12.4047.604-4.6478,1.358-9.2654,1.917-13.9132.347-2.9275.543-5.8701.588-8.8127.045-3.2444-2.278-6.2624-5.447-6.5944-2.717-.2867-5.599-.2415-8.255.3622-4.527,1.0261-7.726,4.029-9.129,8.4807-1.011,3.2142-1.66,6.5642-2.173,9.8992-.845,5.4928-1.389,11.0309-2.158,16.5239-.694,4.949-2.898,9.069-7.138,11.891-1.434.966-3.003,1.75-4.542,2.535-1.449.74-2.973.89-4.829.151-.166-.77-.573-1.69-.483-2.55.317-3.275.77-6.534,1.222-9.794.71-5.1455,1.525-10.2913,2.173-15.4522.634-5.0854,1.042-10.1859,1.66-15.2713.679-5.5985,1.509-11.1819,2.264-16.7652.045-.3471.09-.6942.136-1.0413.588-5.689,1.101-11.378,1.78-17.0519.513-4.3008,1.313-8.5562,1.856-12.8418.498-3.9537.845-7.9375,1.268-11.9062.181-1.7203.377-3.4557.573-5.17599.302-2.65588,1.811-3.48584,4.346-2.80678c3.501.93559,5.901,3.16895,7.878,6.00587c2.248,3.2444,2.082,6.9416,1.644,10.5783-1.056,8.9485-2.263,17.897-3.38,26.8455-.317,2.5805-.634,5.1609-.83,7.7564-.06.7394.302,1.509.543,2.5955l-.015.0151Z"
                    fill="#fff" />
                <path id="eHZ4RiQg7oX5"
                    d="M826.658,62.0354c2.4-2.9879,4.301-6.5794,8.602-6.9717c2.49-.2264,4.995-.3471,7.786.2565.031,1.1318.197,2.1428.076,3.1086-.77,6.7152-1.585,13.4454-2.415,20.1606-.633,5.0703-1.358,10.1406-2.022,15.226-.875,6.7906-1.69,13.5966-2.58,20.4016-.362,2.792-.86,3.215-3.652,3.275-1.645.03-3.305.045-4.949-.03-2.219-.106-3.984-.981-5.207-2.958-.513-.83-1.282-1.509-2.067-2.384-1.871.935-3.471,1.781-5.1,2.55-7.334,3.456-14.94,4.059-22.545,1.404-8.074-2.822-13.672-8.511-16.615-16.5394-3.033-8.2543-2.52-16.4936.559-24.7178c2.278-6.1115,6.217-10.9404,11.408-14.5017c4.799-3.2897,10.231-5.5834,16.328-5.4023c3.199.0905,6.368-.0905,9.582.6187c4.286.9356,8.058,2.6408,11.348,5.5079.377.332.83.5735,1.479.996h-.016ZM805.095,105.51c5.885.302,10.502-1.735,14.154-5.8999c2.49-2.837,4.105-6.0663,5.116-9.7936c1.177-4.3611.739-8.4807-.649-12.5249-1.072-3.1237-2.928-5.8399-5.81-7.7715-3.486-2.3389-7.198-3.0482-11.348-2.686-4.3.3772-7.998,2.007-10.834,5.0401-6.369,6.7604-7.425,14.8639-4.935,23.5106.89,3.0784,2.52,5.9452,5.478,7.6662c2.807,1.629,5.749,2.912,8.828,2.459v0Z"
                    fill="#fff" />
                <path id="eHZ4RiQg7oX6"
                    d="M586.95,91.8537c-1.237,2.2786-.392,4.2253.528,6.0814c2.55,5.1309,7.092,7.1679,12.48,7.5449c4.346.302,8.616,0,12.766-1.811c4.361-1.886,8.994-1.765,13.536-.392.785.241,1.509.664,2.324,1.026-.423,2.731-2.339,4.15-3.984,5.553-5.93,5.116-12.766,7.953-20.749,7.636-3.546-.136-7.062-.121-10.624-.77-12.434-2.263-22.952-14.471-22.771-28.2787.151-11.8911,4.935-21.1414,14.321-28.098c4.27-3.1539,9.341-4.7836,14.547-5.2967c6.247-.6187,12.464-.4074,18.395,2.3541c2.837,1.3128,5.281,3.0029,7.379,5.2212c4.829,5.1307,8.179,11.0008,8.632,18.2139.166,2.5955.407,5.1911.407,7.7866c0,2.6257-.769,3.184-3.35,2.9879-.936-.0755-1.901.0301-2.852.0301-1.992,0-3.969-.0301-5.961-.0301-5.809,0-11.634,0-17.444.0301-2.248,0-4.512.1509-6.76.166-3.531.0302-7.063,0-10.835,0l.015.0453Zm.694-12.6154c1.026.2112,1.917.5583,2.822.5583c8.315.0754,16.644.1207,24.959.1207.951,0,1.902-.3923,2.792-.5885-.664-7.8167-7.44-12.1024-12.555-12.5098-10.971-.8752-16.72,5.2212-18.018,12.4042v.0151Z"
                    fill="#fff" />
                <path id="eHZ4RiQg7oX7"
                    d="M358.997,55.1241c3.395-.5131,6.443.664,9.416,2.0975c5.961,2.8672,9.597,7.696,11.846,13.8227c2.52,6.8359,5.251,13.5963,7.907,20.3869.211.5432.513,1.0563.981,2.0221.83-.9809,1.6-1.6298,2.067-2.4597c3.154-5.4929,6.263-11.0008,9.356-16.5238.725-1.2827,1.343-2.6408,2.022-3.9386c4.452-8.5411,11.801-13.219,20.9-15.4071c1.283-.3018,2.686-.0453,4.543-.0453-.468,1.3732-.634,2.3843-1.117,3.2142-4.24,7.3792-8.541,14.713-12.812,22.077-3.923,6.7605-7.816,13.536-11.725,20.296-4.633,8.044-9.265,16.102-13.883,24.16-4.753,8.284-9.492,16.584-14.275,24.838-2.158,3.743-4.391,4.09-7.757,1.313-.603-.498-1.116-1.101-1.69-1.629-2.671-2.521-3.757-6.821-1.448-10.73c3.561-6.066,7.047-12.162,10.563-18.259c2.037-3.531,4.044-7.062,6.172-10.774-.996-2.43-1.977-4.829-2.943-7.228-3.938-9.7488-7.847-19.4971-11.816-29.2303-1.991-4.9043-4.044-9.7935-6.096-14.6828-.438-1.0412-.936-2.0673-.211-3.35v.0302Z"
                    fill="#fff" />
                <path id="eHZ4RiQg7oX8"
                    d="M539.054,55.2448c3.983-.2113,8.843-1.0262,13.007.181-.422,4.0291-2.218,6.9868-4.904,9.5974-2.671,2.5805-6.172,3.3953-9.597,4.6629-.287,1.6147-.634,3.1237-.83,4.6478-.906,7.2282-1.796,14.4565-2.671,21.6696-.74,6.1115-1.434,12.2385-2.234,18.3345-.12.966-.709,1.886-1.267,3.275-1.6-.317-2.913-.378-4.075-.815-4.979-1.917-7.65-5.825-8.888-10.805-.286-1.132-.166-2.414-.015-3.606.755-5.9308,1.555-11.8462,2.369-17.7615.408-3.003.906-5.9909,1.328-8.9938.121-.8602.166-1.7203.242-2.5955.181-2.173-.483-3.8028-2.55-4.9496-4.331-2.3994-5.478-7.4999-3.019-12.9022c2.158-.166,4.739-.1358,7.47-.3471.332-1.2223.619-2.6257.785-3.8631.724-5.8399,1.358-11.6949,2.037-17.5348.151-1.2978.241-2.6106.558-3.8631.272-1.0564.845-2.0372,1.238-2.9728.679-.1509,1.147-.3924,1.509-.3018c3.546.9959,6.851,2.339,8.978,5.6739c2.46,3.8329,2.717,7.9375,1.992,12.2684-.437,2.5653-.784,5.1457-1.086,7.7262-.091.7243-.347,2.2937-.377,3.2293"
                    fill="#fff" />
                <path id="eHZ4RiQg7oX9"
                    d="M442.219,105.933c2.928-2.792,6.278-3.395,9.824-3.26c2.173.091,4.271.619,6.232,1.691c2.807,1.539,5.901,1.418,8.919.935c2.565-.407,4.376-2.445,4.648-4.98.271-2.4141-.408-4.3607-2.732-5.6887-4.602-2.6106-9.084-5.4476-13.656-8.1185-7.289-4.2555-8.647-13.4907-5.403-19.9342c3.788-7.4848,10.156-11.0914,18.41-11.6799c5.931-.4225,11.409.9054,16.373,4.1649c1.705,1.1167,3.245,2.5201,4.708,3.682-.271,2.339-1.705,3.2143-3.169,3.9688-3.591,1.841-7.364,1.7052-11.197.8903-1.433-.3169-2.897-.5734-4.361-.6338-1.011-.0453-2.112.1207-3.063.4829-1.63.6036-3.305,1.3581-3.546,3.4255-.257,2.2937-.317,4.5874,1.962,6.0663c1.675,1.0864,3.35,2.1729,5.07,3.184c2.837,1.6901,5.9,3.0482,8.511,5.025c7.726,5.855,11.061,14.6074,4.301,24.1294-4.226,5.945-10.428,7.983-17.43,8.269-5.236.212-10.321-.407-14.833-3.138-2.943-1.781-5.554-4.12-8.24-6.308-.603-.483-.875-1.373-1.328-2.143v-.03Z"
                    fill="#fff" />
                <path id="eHZ4RiQg7oX10"
                    d="M660.002,116.496c0-1.464-.151-3.003.03-4.512.543-4.738,1.207-9.446,1.841-14.1696.392-3.003.815-6.021,1.192-9.024.649-5.2514,1.253-10.5028,1.932-15.7542.664-5.1609,1.403-10.3066,2.142-15.4524.257-1.8561.83-2.505,2.656-2.5804c2.43-.1057,4.859-.0604,7.289,0c1.479.0301,2.656.7394,3.576,1.8712.528.6639,1.057,1.343,1.736,2.2182c1.011-.4376,1.961-.7545,2.837-1.2374c4.059-2.2182,8.39-3.5613,13.007-2.8369c2.868.4527,5.629,1.6146,8.406,2.5502.513.166.875.7696,1.313,1.177-.332,2.0825-1.675,3.3048-3.139,4.3762-3.32,2.4597-7.168,3.4255-11.212,3.7726-.347.0301-.694.0452-1.041,0-7.304-.6187-9.749,2.7615-11.892,8.8429-.935,2.6558-1.146,5.5833-1.599,8.3901-.453,2.7314-.815,5.4929-1.177,8.2393-.513,3.9385-.86,7.9222-1.524,11.8462-.634,3.712-2.626,6.836-5.463,9.22-1.826,1.524-4.104,2.58-6.277,3.652-1.359.664-2.853.679-4.618-.559l-.015-.03Z"
                    fill="#fff" />
                <path id="eHZ4RiQg7oX11"
                    d="M726.278,116.904c-.045-1.374-.256-2.732-.121-4.06.408-3.953.936-7.892,1.449-11.846.951-7.2127,1.977-14.4258,2.867-21.6541.694-5.5683,1.207-11.1667,1.856-16.7501.287-2.4748.528-4.9798,1.826-7.3188c3.169-.6338,5.75.5432,7.923,2.4748c3.184,2.8219,5.13,6.3379,4.798,10.7744-.196,2.671-.513,5.3269-.8,7.9979-.588,5.4324-1.161,10.8649-1.825,16.2823-.649,5.342-1.404,10.6686-2.068,15.9956-.241,1.886-.362,3.803-.573,5.689-.227,2.037-.845,2.913-2.611,2.958-3.727.09-7.454,0-11.197-.045-.332,0-.649-.197-1.524-.498v0Z"
                    fill="#fff" />
                <path id="eHZ4RiQg7oX12"
                    d="M742.515,43.8215c4.551,0,8.239-3.6889,8.239-8.2393s-3.688-8.2392-8.239-8.2392c-4.55,0-8.239,3.6888-8.239,8.2392s3.689,8.2393,8.239,8.2393Z"
                    fill="#fff" />
            </g>
            <g id="eHZ4RiQg7oX13" transform="translate(.000001 0.000001)">
                <path
                    d="M35.2508,33.8619l-.0302.0302c-1.9617-2.9124-3.9234-5.8399-5.8701-8.7523-1.0865-1.6147-2.1579-3.2444-3.184-4.8893-.4678-.7394-1.0413-1.0412-1.9014-1.011-1.6297.0302-3.2595,0-4.9043,0-4.1649.0603-7.9978-1.0865-11.37806-3.4708C4.3309,13.2034,1.8561,9.73264,0.63379,5.43192C0.271624,4.20961,0,2.95712,0,1.64427c0-.4678.030181-1.011048.075451-1.599568.558339,0,1.131769.015091,1.675019,0c2.7766-.03018,5.5683-.090541,8.34493.015091c1.0261.04527,2.0522-.015091,3.0633-.015091L35.2508,33.8468v.0151Z"
                    fill="url(#eHZ4RiQg7oX14-fill)" />
                <path
                    d="M160.289,43.5499L142.965,69.5956c0,0-.015,0-.03-.0151.392-.6036.739-1.2223,1.056-1.7354-.256-.7092-.754-.7092-1.177-.7997-4.24-.7998-8.224-2.3239-12.072-4.2555-5.463-2.7313-10.563-6.0361-15.347-9.8539-2.082-1.6599-4.165-3.3501-6.232-5.0553-.8-.6639-1.569-1.3732-2.339-2.0824-4.21-3.8178-9.0391-6.3681-14.7583-6.8812-3.2293-.2867-6.4586-.015-9.5974.9809-1.7203.5433-3.4104,1.162-5.0552,1.8863c2.9879-1.6599,6.0663-3.1539,9.1749-4.5874c6.4133-2.9426,13.0983-4.9798,20.04-6.1418c3.682-.6338,7.424-.8903,11.151-1.1619.378-.0302.755-.0453,1.147-.0604.604.4678,1.223.9356,1.826,1.4034c3.441,2.7012,6.776,5.5381,10.594,7.7111c2.625,1.494,5.191,3.0935,7.892,4.4516c3.078,1.5543,6.353,2.5956,9.778,3.1992c2.505.4376,5.025.6338,7.545.8752.71.0755,1.193-.1811,1.585-.7545.709-1.0563,1.433-2.1277,2.143-3.1991v.0302Z"
                    fill="url(#eHZ4RiQg7oX15-fill)" />
                <path
                    d="M195.146,28.0673h.015c-1.328,2.022-2.671,4.029-3.999,6.021-3.018,4.5119-6.021,9.0239-9.024,13.5359-1.825,2.7464-3.651,5.5079-5.492,8.2393-3.215,4.7987-6.444,9.5823-9.643,14.3961-5.282,7.9374-10.548,15.8749-15.83,23.8124-2.505,3.7574-5.04,7.5-7.545,11.272-3.471,5.207-6.926,10.443-10.382,15.649-2.686,4.029-5.357,8.043-8.043,12.072-2.505,3.758-5.01,7.515-7.515,11.273-1.373,2.052-2.761,4.089-4.15,6.141-.151.227-.347.423-.483.589-.633.121-.935-.242-1.207-.589-1.569-2.007-2.852-4.195-3.893-6.519-.906-2.052-1.494-4.195-1.856-6.368-.181-1.101-.317-2.218-.423-3.335-.151-1.69.121-3.304.242-4.964.181-2.732,1.041-5.222,2.067-7.712.589-1.418,1.313-2.746,2.098-4.044.513-.83,1.056-1.66,1.599-2.475c1.735-2.565,3.441-5.145,5.161-7.726c2.279-3.41,4.557-6.821,6.821-10.2309c1.554-2.3088,3.093-4.6176,4.648-6.9415c1.297-1.9316,2.58-3.8782,3.878-5.8098c1.569-2.3389,3.139-4.6779,4.708-7.0169c1.056-1.5996,2.113-3.1841,3.184-4.7836.619-.9205,1.252-1.841,1.856-2.7615.045-.0604.075-.1208.121-.1811c0,0,.015,0,.03.0151L159.413,43.58c.528-.7696,1.056-1.5543,1.569-2.339c1.283-1.9013,2.55-3.8178,3.818-5.7192c1.509-2.2937,3.033-4.5723,4.557-6.8509c1.268-1.9014,2.55-3.8179,3.833-5.7041.8-1.1771,1.569-2.3692,2.429-3.5161c1.992-2.686,4.211-5.1457,6.716-7.3791c2.716-2.42953,5.674-4.4818,8.858-6.20209c3.395-1.84101,6.941-3.36512,10.759-4.1649c2.233-.4678,4.482-.99596,6.745-1.282674c1.6-.196173,2.686-.316895,4.95-.271625L195.222,28.1125l-.076-.0452Z"
                    fill="#fff" />
                <path
                    d="M69.2944,46.5226c0,0-.0151.0151-.0302.0302.2414.4074.3773.7243.5583,1.011c1.2223,1.8561,2.4447,3.7122,3.6821,5.5683c2.2031,3.2897,4.4818,6.5341,6.6095,9.869c1.9315,2.9879,3.4104,6.2021,4.014,9.7785.2716,1.5845.498,3.1539.4074,4.7685-.2263,3.5312-.9205,6.9415-2.5653,10.1407-1.2676,2.4748-2.7766,4.7383-4.7836,6.6548-.2867.2716-.6489.4678-1.0111.7394-.2565-.3018-.4678-.4678-.6187-.6942-1.343-1.9919-2.686-3.9838-4.014-5.9757-1.4788-2.1881-2.9426-4.3913-4.4214-6.5793-1.4638-2.2032-2.9124-4.4215-4.3762-6.6096-1.7203-2.5804-3.4406-5.1457-5.1608-7.7262-1.2676-1.9013-2.5503-3.8178-3.8179-5.7343-2.7011-4.0894-5.3872-8.194-8.1034-12.2834-1.4638-2.2032-2.9879-4.346-4.4667-6.5492-1.3733-2.0523-2.7012-4.1347-4.0744-6.187-.6338-.9507-1.2827-1.9013-1.9165-2.852l.0302-.0302L14.6074,2.27802L13.1587,0.059753c.332,0,.664,0,.9959.030181c2.2183.105632,4.4215.407436,6.6247.724331c2.6408.392345,5.2514,1.041225,7.7563,1.991915c1.5996.58852,3.1539,1.28267,4.6931,1.99191c1.2676.57343,2.5201,1.17704,3.6971,1.91646c1.8259,1.14686,3.6217,2.33899,5.3269,3.65185c3.1991,2.4899,5.9606,5.4325,8.4203,8.6316c1.0563,1.3732,1.9618,2.8671,2.9275,4.3158c1.2374,1.841,2.4597,3.7122,3.6971,5.5532.0604.0906.1358.1962.1962.2867c0,0,0,0,0,.0151.0755.1057.1509.2113.2415.3471c0,0,0,0,.015,0c.4528-.2113.7998-.3471,1.1016-.5432c3.1388-2.1429,6.519-3.8481,9.9747-5.4325c4.1045-1.8863,8.3902-3.1992,12.8267-3.9386c2.3541-.4074,4.7534-.5734,7.1528-.7394c2.9576-.1962,5.9153.0453,8.8127.6489c3.1992.6639,6.3682,1.4335,9.3262,2.8973c2.791,1.3732,5.507,2.837,8.103,4.512.724.4678,1.403,1.0261,2.082,1.5543.589.4678,1.193.9356,1.796,1.3883-.377.0151-.754.0302-1.147.0603-3.742.2566-7.469.5282-11.151,1.162-6.9268,1.1619-13.6118,3.1991-20.0402,6.1417-3.1086,1.4336-6.187,2.9275-9.1749,4.5874-1.2826.5433-2.5351,1.1469-3.7725,1.7958-1.1771.6187-2.2937,1.3279-3.4104,2.0372-.3471.2112-.6187.5583-.9507.8903l.0151-.0151Z"
                    fill="#fff" />
                <path
                    d="M226.007,2.85146c-.438,2.86715-1.449,5.52303-3.018,7.93744-1.404,2.1881-3.23,3.9989-5.418,5.4023-3.305,2.1278-6.956,3.0935-10.88,3.0483-1.599-.0151-3.199.0151-4.799,0-.845,0-1.463.2716-1.946.9808-.891,1.3732-1.826,2.7163-2.732,4.0593-.845,1.2676-1.705,2.5352-2.535,3.8027h-.015L213.089,0.105039c.151.01509,8.3-.060361,11.394-.060361.467,0,1.146,0,1.629,0c.362.935595.015,1.961732-.105,2.791692v.01509Z"
                    fill="url(#eHZ4RiQg7oX18-fill)" />
            </g>
        </g>
    </g>
</svg>