<svg id="animated-brand" xmlns="http://www.w3.org/2000/svg" xmlns:xlink="http://www.w3.org/1999/xlink"
    viewBox="0 0 865 152" shape-rendering="geometricPrecision" text-rendering="geometricPrecision">
    <style>
        #animated-brand-s-g3_to {
            /* animation: animated-brand-s-g3_to__to 1500ms linear 1 normal forwards; */
        }

        #animated-brand-s-g3_to {
            /* animation: animated-brand-s-g3_to__to 1500ms linear 1 normal forwards; */
        }

        @keyframes animated-brand-s-g3_to__to {
            0% {
                transform: translate(84px, 47.578787px);
                animation-timing-function: cubic-bezier(0.42, 0, 0.58, 1)
            }

            100% {
                transform: translate(219px, 47.578787px)
            }
        }
    </style>
    <defs>
        <linearGradient id="animated-brand-s-path4-fill" x1="77.6072" y1="46.731" x2="361.777" y2="46.731"
            spreadMethod="pad" gradientUnits="userSpaceOnUse" gradientTransform="translate(0 0)">
            <stop id="animated-brand-s-path4-fill-0" offset="3.94783%" stop-color="rgba(255,255,255,0)" />
            <stop id="animated-brand-s-path4-fill-1" offset="17.1335%" stop-color="#fff" />
            <stop id="animated-brand-s-path4-fill-2" offset="29.0647%" stop-color="#fff" />
            <stop id="animated-brand-s-path4-fill-3" offset="46.7877%" stop-color="#fff" />
            <stop id="animated-brand-s-path4-fill-4" offset="51.7947%" stop-color="rgba(255,255,255,0)" />
            <stop id="animated-brand-s-path4-fill-5" offset="64.558%" stop-color="#fff" />
            <stop id="animated-brand-s-path4-fill-6" offset="81.8505%" stop-color="#fff" />
            <stop id="animated-brand-s-path4-fill-7" offset="100%" stop-color="#fff" />
        </linearGradient>
        <linearGradient id="animated-brand-s-path5-fill" x1="208.413" y1="34.0378" x2="199.775" y2="38.7496"
            spreadMethod="pad" gradientUnits="userSpaceOnUse" gradientTransform="translate(0 0)">
            <stop id="animated-brand-s-path5-fill-0" offset="0%" stop-color="#fff" />
            <stop id="animated-brand-s-path5-fill-1" offset="100%" stop-color="rgba(255,255,255,0)" />
        </linearGradient>
        <linearGradient id="animated-brand-s-path8-fill" x1="-5.84323" y1="12.0795" x2="21.3192" y2="12.834"
            spreadMethod="pad" gradientUnits="userSpaceOnUse" gradientTransform="translate(0 0)">
            <stop id="animated-brand-s-path8-fill-0" offset="0%" stop-color="#d9d9d9" />
            <stop id="animated-brand-s-path8-fill-1" offset="100%" stop-color="rgba(217,217,217,0)" />
        </linearGradient>
        <linearGradient id="animated-brand-s-path9-fill" x1="228.886" y1="9.81598" x2="203.987" y2="9.7045"
            spreadMethod="pad" gradientUnits="userSpaceOnUse" gradientTransform="translate(0 0)">
            <stop id="animated-brand-s-path9-fill-0" offset="0%" stop-color="#f0f0f0" />
            <stop id="animated-brand-s-path9-fill-1" offset="100%" stop-color="rgba(217,217,217,0)" />
        </linearGradient>
    </defs>
    <g id="animated-brand-s-g1" mask="url(#animated-brand-u-mask0_39_72)">
        <g id="animated-brand-s-g2">
            <path id="animated-brand-s-path1" d="M76.926,80.4751L38.356,15.7769h154.591L149.711,80.4751h-72.785Z"
                fill="#d9d9d9" />
        </g>
        <mask id="animated-brand-u-mask0_39_72" mask-type="alpha" x="-150%" y="-150%" height="400%" width="400%">
            <g id="animated-brand-s-g3_to" transform="translate(84,47.578787)">
                <g id="animated-brand-s-g3" transform="translate(-223.036289,-47.578786)">
                    <path id="animated-brand-s-path2"
                        d="M69.4879,50.5119c0,0-.0151.0151-.0302.0302.2414.4074-1.0209-.9054-1.0209-.9054s-4.1788-6.7225-10.1302-15.6403l.7388-1.0344c0,0,6.519-3.8481,9.9747-5.4325c4.1045-1.8863,8.3903-3.1992,12.8268-3.9386c2.3541-.4074,4.7534-.5734,7.1528-.7394c2.9576-.1962,5.9153.0453,8.8127.6489c3.1996.6639,6.3686,1.4335,9.3266,2.8973c2.791,1.3732,5.507,2.837,8.103,4.512.724.4678,1.403,1.0261,2.082,1.5543.589.4678,1.193.9356,1.796,1.3883-.377.0151-.754.0302-1.147.0603-3.742.2566-7.469.5282-11.151,1.162-6.9271,1.1619-13.6122,3.1991-20.0406,6.1417-3.1086,1.4336-6.187,2.9275-9.1749,4.5874-1.2826.5433-2.5352,1.1469-3.7726,1.7958-1.1771.6187-2.2937,1.3279-3.4104,2.0372-.3471.2112-.6187.5583-.9507.8903l.0151-.0151Z"
                        transform="translate(.000001 0)" fill="#fff" />
                    <path id="animated-brand-s-path3"
                        d="M376.585,50.5119c0,0,.015.0151.03.0302-.241.4074,1.021-.9054,1.021-.9054s4.179-6.7225,10.13-15.6403l-.739-1.0344c0,0-6.519-3.8481-9.974-5.4325-4.105-1.8863-8.391-3.1992-12.827-3.9386-2.354-.4074-4.754-.5734-7.153-.7394-2.958-.1962-5.915.0453-8.813.6489-3.199.6639-6.368,1.4335-9.326,2.8973-2.791,1.3732-5.507,2.837-8.103,4.512-.724.4678-1.403,1.0261-2.082,1.5543-.589.4678-1.193.9356-1.796,1.3883.377.0151.754.0302,1.147.0603c3.742.2566,7.469.5282,11.151,1.162c6.927,1.1619,13.612,3.1991,20.04,6.1417c3.109,1.4336,6.187,2.9275,9.175,4.5874c1.283.5433,2.535,1.1469,3.773,1.7958c1.177.6187,2.294,1.3279,3.41,2.0372.347.2112.619.5583.951.8903l-.015-.0151Z"
                        transform="translate(0 0.000001)" fill="#fff" />
                    <path id="animated-brand-s-path4"
                        d="M223.036,42.8239c12.877.5801,12.636,2.7476,26.876,14.1011c4.784,3.8176,9.884,7.1226,15.347,9.8538c3.848,1.9316,7.832,3.4558,12.072,4.2556c8.092,1.7312,17.958,1.6636,25.734,0c19.384-3.6565,31.913-26.4384,50.748-28.1284c3.229-.2867,6.458-.0149,9.597.9809c1.721.5432,3.411,1.1621,5.056,1.8862-2.988-1.6599-6.067-3.1538-9.175-4.5874-6.414-2.9426-13.099-4.9797-20.04-6.1416-3.532-.6081-7.118-.8688-10.694-1.1289h-.002l-.455-.0332c-.378-.03-.755-.0451-1.147-.0603-.286.2215-.576.4429-.865.6646l-.019.0146c-.923.7061-1.825,1.4203-2.727,2.1382-7.479,5.9549-16.892,12.258-26.479,13.948-28.506,4.9794-42.841-27.3626-72.414-27.3626-32.089,0-40.364,28.1215-66.902,28.1263-14.862-.4878-27.123-8.8735-37.543-16.8501-.296-.2263-.592-.4526-.884-.679-.392.0152-.769.0303-1.147.0603l-.455.0332c-3.576.2601-7.164.5208-10.696,1.1289-6.9416,1.1619-13.6267,3.199-20.04,6.1416-3.1084,1.4336-6.187,2.9275-9.1748,4.5874c1.6448-.7241,3.3349-1.343,5.0552-1.8862c3.1389-.9958,6.3681-1.2676,9.5974-.9809c5.7192.5131,10.5482,3.0634,14.7582,6.8813l.031.0288c.191.176.382.3521.574.5274.19.174.381.3474.573.5195.225.2017.45.4014.678.5979.16.1377.321.2742.483.4087c1.403,1.1579,2.814,2.3086,4.227,3.4477c16.096,12.9779,34.134,20.2147,55.157,15.7171c4.24-.7998,8.224-2.324,12.072-4.2556c17.134-9.1596,33.12-23.9549,42.223-23.9549Z"
                        fill="url(#animated-brand-s-path4-fill)" />
                    <path id="animated-brand-s-path5"
                        d="M204.918,50.9516c0,0-.015.0151-.03.0302.241.4074-1.021-.9054-1.021-.9054s-4.657-7.2009-10.609-16.1187c7.5-4.5344,13.677-10.3083,31.172-10.6665c2.957-.1962,5.915.0453,8.812.6489c3.2.6639,6.369,1.4335,9.327,2.8973c2.791,1.3732,5.507,2.837,8.103,4.512.724.4678,1.403,1.0261,2.082,1.5543.589.4678,1.193.9356,1.796,1.3883-.377.0151-.754.0302-1.147.0603-3.742.2566-7.469.5282-11.151,1.162-6.927,1.1619-13.612,3.1991-20.041,6.1417-3.108,1.4336-6.187,2.9275-9.175,4.5874-1.282.5433-2.535,1.1469-3.772,1.7958-1.177.6187-2.294,1.3279-3.411,2.0372-.347.2112-.618.5583-.95.8903l.015-.0151Z"
                        transform="translate(0 0.000001)" fill="url(#animated-brand-s-path5-fill)" />
                </g>
            </g>
        </mask>
    </g>
    <path id="animated-brand-s-path6"
        d="M69.4873,46.53c.0118-.0118-.0302.0302-.0302.0302.2414.4074.3773.7243.5583,1.011c1.2223,1.8561,2.4447,3.7122,3.6821,5.5683c2.2031,3.2897,4.4818,6.5341,6.6095,9.869c1.9315,2.9879,3.4104,6.2021,4.014,9.7785.2716,1.5845.498,3.1539.4074,4.7685-.2263,3.5312-.9205,6.9415-2.5653,10.1407-1.2676,2.4748-2.7766,4.7383-4.7836,6.6548-.2867.2716-.6489.4678-1.0111.7394-.2565-.3018-.4678-.4678-.6187-.6942-1.343-1.9919-2.686-3.9838-4.014-5.9757-1.4788-2.1881-2.9426-4.3913-4.4214-6.5793-1.4638-2.2032-2.9124-4.4215-4.3762-6.6096-1.7203-2.5804-3.4406-5.1457-5.1608-7.7262-1.2676-1.9013-2.5503-3.8178-3.8179-5.7343-2.7011-4.0894-5.3872-8.194-8.1034-12.2834-1.4638-2.2032-2.9879-4.346-4.4667-6.5492-1.3733-2.0523-2.7012-4.1347-4.0744-6.187-.6338-.9507-1.2827-1.9013-1.9165-2.852l.0302-.0302L14.8003,2.28541L13.3516,0.067139c.332,0,.664,0,.9959.03018c2.2183.105632,4.4215.407436,6.6247.724331c2.6408.39235,5.2514,1.04123,7.7563,1.99192c1.5996.58852,3.1539,1.28267,4.6931,1.99191c1.2676.57343,2.5201,1.17704,3.6971,1.91646c1.8259,1.14686,3.6217,2.33899,5.3269,3.65186c3.1991,2.4899,5.9606,5.4325,8.4203,8.6316c1.0563,1.3732,1.9618,2.8671,2.9275,4.3158C59.0035,31.0729,64.279,38.782,69.4722,46.5451l.0151-.0151Z"
        fill="#fff" />
    <path id="animated-brand-s-path7"
        d="M195.339,28.0747h.015c-1.328,2.022-2.671,4.029-3.999,6.021-3.018,4.5119-6.021,9.0239-9.024,13.5359-1.825,2.7464-3.651,5.5079-5.492,8.2393-3.215,4.7987-6.444,9.5823-9.643,14.3961-5.282,7.9374-10.548,15.8749-15.83,23.8124-2.505,3.7574-5.04,7.4996-7.545,11.2716-3.471,5.207-6.926,10.443-10.382,15.649-2.686,4.029-5.357,8.043-8.043,12.072-2.505,3.758-5.01,7.515-7.515,11.273-1.373,2.052-2.761,4.089-4.15,6.141-.151.227-.347.423-.483.589-.633.121-.935-.242-1.207-.589-1.569-2.007-2.852-4.195-3.893-6.519-.906-2.052-1.494-4.195-1.856-6.368-.181-1.101-.317-2.218-.423-3.335-.151-1.69.121-3.304.242-4.964.181-2.732,1.041-5.222,2.067-7.712.589-1.418,1.313-2.746,2.098-4.044.513-.83,1.056-1.66,1.599-2.475c1.735-2.565,3.441-5.145,5.161-7.726c2.279-3.41,4.557-6.821,6.821-10.2305c1.554-2.3088,3.093-4.6176,4.648-6.9415c1.297-1.9316,2.58-3.8782,3.878-5.8098c1.569-2.3389,3.139-4.6779,4.708-7.0169c1.056-1.5996,2.113-3.1841,3.184-4.7836.619-.9205,1.252-1.841,1.856-2.7615.045-.0604.075-.1208.121-.1811c0,0,.015,0,.03.0151l17.324-26.0458c.528-.7696,1.056-1.5543,1.569-2.339c1.283-1.9013,2.55-3.8178,3.818-5.7192c1.509-2.2937,3.033-4.5723,4.557-6.8509c1.268-1.9014,2.55-3.8179,3.833-5.7041.8-1.1771,1.569-2.3692,2.429-3.5161c1.992-2.686,4.211-5.1457,6.716-7.3791c2.716-2.42954,5.674-4.48181,8.858-6.2021c3.395-1.84101,6.941-3.36512,10.759-4.1649c2.233-.4678,4.482-.995965,6.745-1.282679c1.6-.196173,2.686-.316895,4.95-.271625L195.415,28.1199l-.076-.0452Z"
        fill="#fff" />
    <path id="animated-brand-s-path8"
        d="M35.4437,33.8692l-.0302.0302c-1.9617-2.9124-3.9234-5.8399-5.8701-8.7523-1.0865-1.6147-2.1579-3.2444-3.184-4.8893-.4678-.7394-1.0413-1.0412-1.9014-1.011-1.6297.0302-3.2595,0-4.9043,0-4.1649.0603-7.9978-1.0865-11.37809-3.4708C4.52377,13.2107,2.04897,9.73996,0.826661,5.43924c-.362166-1.22231-.63379-2.4748-.63379-3.78765c0-.4678.030181-1.011044.075451-1.599564.558339,0,1.131768.015091,1.675018,0c2.7766-.03018,5.5683-.090541,8.34496.015091c1.0261.04527,2.0522-.015091,3.0633-.015091L35.4437,33.8541v.0151Z"
        fill="url(#animated-brand-s-path8-fill)" />
    <path id="animated-brand-s-path9"
        d="M226.2,2.85878c-.438,2.86715-1.449,5.52303-3.018,7.93742-1.404,2.1881-3.23,3.9989-5.418,5.4023-3.305,2.1278-6.956,3.0935-10.88,3.0483-1.599-.0151-3.199.0151-4.799,0-.845,0-1.463.2716-1.946.9808-.891,1.3732-1.826,2.7163-2.732,4.0593-.845,1.2676-1.705,2.5352-2.535,3.8027h-.015L213.282,0.112363c.151.01509,8.3-.060361,11.394-.060361.467,0,1.146,0,1.629,0c.362.935595.015,1.961728-.105,2.791688v.01509Z"
        fill="url(#animated-brand-s-path9-fill)" />
    <path id="animated-brand-s-path10"
        d="M303.226,55.7384c2.33-1.1336,4.224-2.0808,6.134-2.9659c9.069-4.1305,17.795-3.5404,25.808,2.438c3.758,2.795,5.481,6.9566,5.808,11.6306.372,5.3106-.746,10.5125-1.321,15.7456-.466,4.177-.76,8.3697-1.412,12.5157-.762,4.8294-1.305,9.7046-4.768,13.6956-2.733,3.153-6.18,4.783-10.015,5.808-.854.232-1.864-.108-3.091-.202.14-3.013.14-5.777.404-8.509.404-4.27.963-8.5255,1.522-12.7647.621-4.7827,1.397-9.5343,1.972-14.317.357-3.0125.559-6.0405.605-9.0685.047-3.3385-2.344-6.4441-5.605-6.7858-2.795-.295-5.761-.2485-8.494.3727-4.659,1.0559-7.95,4.146-9.394,8.7269-1.04,3.3075-1.708,6.7547-2.236,10.1865-.87,5.6522-1.43,11.351-2.221,17.0034-.714,5.0925-2.982,9.3325-7.345,12.2365-1.476.994-3.09,1.8-4.674,2.608-1.491.762-3.059.916-4.969.156-.171-.793-.59-1.739-.497-2.624.326-3.37.792-6.724,1.258-10.079.73-5.2945,1.569-10.5896,2.236-15.9003.652-5.233,1.072-10.4815,1.708-15.7145.698-5.761,1.553-11.5064,2.329-17.2518.047-.3572.093-.7143.14-1.0715.605-5.8541,1.133-11.7082,1.832-17.5468.528-4.4256,1.351-8.8045,1.91-13.2145.512-4.0684.869-8.1678,1.305-12.25172.186-1.77022.388-3.55599.589-5.3262.311-2.732962,1.864-3.587009,4.472-2.888241c3.603.962741,6.073,3.260921,8.107,6.180171c2.313,3.33856,2.143,7.14309,1.692,10.88529-1.087,9.2082-2.329,18.4164-3.478,27.6246-.326,2.6554-.653,5.3107-.854,7.9815-.062.7609.31,1.5528.558,2.6709l-.015.0155Z"
        fill="#fff" />
    <path id="animated-brand-s-path11"
        d="M847.178,57.6951c2.47-3.0746,4.426-6.7703,8.852-7.174c2.562-.233,5.14-.3572,8.012.2639.032,1.1647.203,2.205.078,3.1988-.792,6.9101-1.631,13.8356-2.485,20.7457-.651,5.2175-1.397,10.4349-2.081,15.6679-.9,6.9877-1.739,13.9916-2.655,20.9936-.372,2.873-.885,3.308-3.758,3.37-1.692.031-3.4.046-5.092-.031-2.284-.109-4.1-1.009-5.358-3.044-.528-.854-1.32-1.552-2.127-2.453-1.926.962-3.572,1.833-5.248,2.624-7.547,3.557-15.374,4.177-23.2,1.445-8.308-2.904-14.068-8.758-17.097-17.0194-3.121-8.4939-2.593-16.9723.575-25.4352c2.344-6.2888,6.398-11.2579,11.739-14.9225c4.939-3.3852,10.528-5.7455,16.802-5.5591c3.292.0931,6.553-.0931,9.86.6366c4.411.9628,8.292,2.7175,11.678,5.6678.388.3416.854.5901,1.522,1.0249h-.017ZM824.989,102.431c6.056.311,10.807-1.785,14.565-6.0707c2.562-2.9194,4.224-6.2424,5.265-10.0778c1.211-4.4877.76-8.7269-.668-12.8884-1.103-3.2144-3.013-6.0094-5.979-7.9971-3.587-2.4068-7.407-3.1366-11.677-2.7639-4.425.3881-8.23,2.0652-11.149,5.1863-6.553,6.9566-7.64,15.2953-5.078,24.193.916,3.1677,2.593,6.1177,5.637,7.8886c2.889,1.676,5.916,2.997,9.084,2.53Z"
        fill="#fff" />
    <path id="animated-brand-s-path12"
        d="M600.513,88.3787c-1.272,2.3448-.403,4.3479.544,6.2579c2.624,5.2798,7.298,7.3764,12.842,7.7634c4.472.311,8.866,0,13.136-1.863c4.488-1.9408,9.255-1.8163,13.929-.403.808.248,1.553.683,2.392,1.055-.436,2.811-2.407,4.271-4.1,5.714-6.102,5.265-13.136,8.184-21.351,7.858-3.649-.14-7.267-.124-10.932-.792-12.795-2.329-23.619-14.8912-23.432-29.0997.155-12.2362,5.078-21.7549,14.736-28.9134c4.394-3.2454,9.612-4.9224,14.969-5.4504c6.429-.6367,12.826-.4193,18.929,2.4224c2.92,1.3509,5.435,3.09,7.594,5.3727c4.969,5.2796,8.416,11.3201,8.882,18.7425.171,2.6708.419,5.3418.419,8.0126c0,2.7019-.791,3.2764-3.447,3.0746-.964-.0777-1.957.031-2.935.031-2.05,0-4.084-.031-6.134-.031-5.978,0-11.972,0-17.95.031-2.314,0-4.643.1553-6.957.1708-3.633.0311-7.268,0-11.149,0l.015.0466Zm.715-12.9815c1.055.2173,1.972.5745,2.903.5745c8.557.0776,17.127.1242,25.684.1242.978,0,1.957-.4037,2.873-.6056-.683-8.0435-7.656-12.4536-12.92-12.8728-11.289-.9006-17.205,5.3727-18.54,12.7642v.0155Z"
        fill="#fff" />
    <path id="animated-brand-s-path13"
        d="M365.945,50.5831c3.494-.528,6.63.6833,9.689,2.1584c6.134,2.9504,9.876,7.9193,12.19,14.2239c2.593,7.0342,5.403,13.9908,8.137,20.9785.217.559.527,1.087,1.009,2.0808.854-1.0094,1.646-1.6771,2.127-2.5311c3.246-5.6523,6.445-11.32,9.628-17.0033.746-1.3199,1.382-2.7175,2.08-4.0529c4.581-8.789,12.144-13.6027,21.507-15.8543c1.32-.3105,2.764-.0466,4.675-.0466-.482,1.4131-.653,2.4535-1.15,3.3075-4.363,7.5934-8.789,15.14-13.184,22.7177-4.036,6.9567-8.042,13.9289-12.065,20.885-4.767,8.2773-9.534,16.5693-14.286,24.8613-4.891,8.524-9.767,17.065-14.689,25.559-2.221,3.851-4.519,4.208-7.982,1.351-.621-.513-1.149-1.133-1.739-1.676-2.749-2.595-3.866-7.019-1.49-11.042c3.664-6.242,7.251-12.515,10.869-18.789c2.096-3.633,4.162-7.267,6.351-11.086-1.025-2.501-2.034-4.97-3.028-7.4382-4.052-10.0317-8.075-20.0629-12.159-30.0786-2.049-5.0466-4.161-10.0777-6.273-15.1089-.451-1.0714-.963-2.1273-.217-3.4473v.0311Z"
        fill="#fff" />
    <path id="animated-brand-s-path14"
        d="M551.228,50.7075c4.098-.2174,9.099-1.056,13.384.1862-.434,4.1461-2.282,7.1896-5.046,9.876-2.749,2.6554-6.351,3.4938-9.876,4.7982-.295,1.6616-.652,3.2144-.854,4.7827-.932,7.438-1.848,14.8761-2.748,22.2985-.762,6.2889-1.476,12.5939-2.299,18.8669-.124.994-.73,1.94-1.304,3.37-1.646-.326-2.997-.389-4.193-.839-5.124-1.973-7.872-5.994-9.146-11.118-.294-1.165-.171-2.485-.015-3.7111.776-6.103,1.6-12.19,2.437-18.277.42-3.0902.933-6.1648,1.367-9.2548.124-.8852.171-1.7703.249-2.6709.186-2.236-.497-3.9131-2.624-5.0932-4.457-2.469-5.637-7.7176-3.107-13.2767c2.221-.1708,4.877-.1397,7.687-.3571.342-1.2578.637-2.7019.808-3.9752.745-6.0094,1.397-12.0344,2.096-18.0437.155-1.3355.248-2.6864.574-3.9753.28-1.087.87-2.0963,1.274-3.059.699-.1553,1.18-.4038,1.553-.3106c3.649,1.0248,7.05,2.4069,9.238,5.8386c2.532,3.9441,2.796,8.1678,2.05,12.6244-.449,2.6398-.807,5.2951-1.117,7.9505-.094.7453-.357,2.3602-.388,3.323"
        fill="#fff" />
    <path id="animated-brand-s-path15"
        d="M451.582,102.867c3.013-2.8735,6.46-3.494,10.109-3.3551c2.236.0937,4.395.6371,6.413,1.7401c2.889,1.584,6.073,1.459,9.178.962c2.64-.419,4.503-2.5158,4.783-5.1244.279-2.4841-.42-4.4872-2.811-5.8538-4.736-2.6863-9.348-5.6057-14.053-8.3541-7.5-4.379-8.898-13.8822-5.559-20.5127c3.898-7.702,10.45-11.4133,18.944-12.0189c6.103-.4348,11.74.9317,16.848,4.2858c1.755,1.1491,3.339,2.5932,4.845,3.7888-.279,2.4069-1.755,3.3076-3.261,4.084-3.696,1.8945-7.578,1.7547-11.522.9162-1.475-.3261-2.981-.5901-4.488-.6522-1.04-.0466-2.173.1242-3.152.4969-1.677.6211-3.401,1.3975-3.649,3.5249-.264,2.3603-.326,4.7205,2.019,6.2424c1.724,1.1179,3.448,2.2359,5.217,3.2764c2.92,1.7391,6.072,3.1366,8.758,5.1708c7.951,6.0249,11.382,15.0313,4.426,24.8299-4.348,6.117-10.73,8.214-17.936,8.509-5.388.218-10.62-.419-15.263-3.229-3.028-1.833-5.715-4.24-8.479-6.491-.621-.497-.901-1.413-1.367-2.206v-.03Z"
        fill="#fff" />
    <path id="animated-brand-s-path16"
        d="M675.686,113.736c0-1.506-.156-3.09.03-4.643.559-4.875,1.242-9.7199,1.895-14.5806.403-3.0901.838-6.1957,1.226-9.2859.668-5.4038,1.29-10.8076,1.988-16.2114.684-5.3106,1.444-10.6057,2.205-15.9008.264-1.91.854-2.5777,2.733-2.6553c2.5-.1088,5-.0622,7.5,0c1.522.031,2.733.7608,3.68,1.9255.543.6832,1.088,1.382,1.786,2.2826c1.041-.4503,2.018-.7764,2.92-1.2733c4.177-2.2826,8.633-3.6647,13.384-2.9193c2.951.4659,5.793,1.6615,8.65,2.6242.528.1708.901.792,1.351,1.2112-.341,2.1429-1.723,3.4007-3.23,4.5032-3.416,2.5311-7.376,3.5249-11.537,3.8821-.357.031-.714.0465-1.071,0-7.516-.6367-10.032,2.8416-12.238,9.0995-.962,2.7329-1.179,5.7454-1.645,8.6336-.466,2.8107-.839,5.6523-1.211,8.4784-.528,4.0528-.885,8.1522-1.568,12.1903-.653,3.819-2.703,7.034-5.622,9.487-1.879,1.569-4.223,2.655-6.459,3.758-1.398.684-2.936.699-4.752-.575l-.015-.031Z"
        fill="#fff" />
    <path id="animated-brand-s-path17"
        d="M743.885,114.156c-.047-1.414-.264-2.811-.125-4.178.42-4.067.963-8.121,1.491-12.1895.979-7.422,2.035-14.8444,2.95-22.2825.715-5.7299,1.242-11.4908,1.91-17.2362.296-2.5467.544-5.1244,1.879-7.5312c3.261-.6522,5.917.5589,8.153,2.5466c3.277,2.9038,5.279,6.5218,4.937,11.0871-.201,2.7485-.527,5.4815-.823,8.23-.605,5.5901-1.194,11.1802-1.878,16.7548-.668,5.4971-1.444,10.9779-2.128,16.4599-.248,1.941-.372,3.913-.589,5.854-.234,2.096-.87,2.998-2.687,3.044-3.835.093-7.67,0-11.522-.046-.342,0-.668-.203-1.568-.513Z"
        fill="#fff" />
</svg>