<svg width="844" height="153" viewBox="0 0 844 153" fill="none" xmlns="http://www.w3.org/2000/svg">
<path d="M298.047 60.134C300.311 59.0324 302.152 58.1119 304.008 57.2517C312.821 53.2377 321.301 53.8112 329.088 59.6209C332.74 62.3371 334.415 66.3813 334.732 70.9235C335.094 76.0844 334.007 81.1396 333.449 86.225C332.996 90.2843 332.71 94.3586 332.076 98.3877C331.336 103.081 330.808 107.819 327.443 111.697C324.787 114.761 321.437 116.345 317.71 117.341C316.88 117.567 315.899 117.235 314.707 117.145C314.843 114.217 314.843 111.531 315.099 108.875C315.492 104.726 316.035 100.591 316.578 96.4713C317.182 91.8235 317.936 87.2059 318.495 82.5581C318.842 79.6306 319.038 76.688 319.083 73.7454C319.128 70.501 316.805 67.4829 313.636 67.1509C310.919 66.8642 308.037 66.9095 305.381 67.5131C300.854 68.5392 297.655 71.5422 296.252 75.9938C295.241 79.208 294.592 82.5581 294.079 85.893C293.234 91.3859 292.69 96.924 291.921 102.417C291.227 107.366 289.023 111.486 284.783 114.308C283.349 115.274 281.78 116.058 280.241 116.843C278.792 117.583 277.268 117.733 275.412 116.994C275.246 116.224 274.839 115.304 274.929 114.444C275.246 111.169 275.699 107.91 276.151 104.65C276.861 99.5044 277.676 94.3586 278.324 89.1978C278.958 84.1124 279.366 79.0119 279.984 73.9264C280.663 68.328 281.493 62.7446 282.248 57.1612C282.293 56.8141 282.338 56.467 282.384 56.12C282.972 50.4309 283.485 44.7419 284.164 39.068C284.677 34.7673 285.477 30.5118 286.02 26.2262C286.518 22.2726 286.865 18.2887 287.288 14.32C287.469 12.5997 287.665 10.8643 287.861 9.14405C288.163 6.48817 289.672 5.65821 292.207 6.33727C295.708 7.27286 298.108 9.50622 300.085 12.3432C302.333 15.5876 302.167 19.2847 301.729 22.9214C300.673 31.87 299.466 40.8185 298.349 49.767C298.032 52.3474 297.715 54.9278 297.519 57.5234C297.459 58.2628 297.821 59.0324 298.062 60.1189L298.047 60.134Z" fill="black"/>
<path d="M826.658 62.0353C829.058 59.0475 830.959 55.456 835.26 55.0636C837.75 54.8373 840.255 54.7166 843.046 55.3202C843.077 56.4519 843.243 57.463 843.122 58.4288C842.352 65.1439 841.537 71.8742 840.707 78.5893C840.074 83.6596 839.349 88.73 838.685 93.8154C837.81 100.606 836.995 107.412 836.105 114.217C835.743 117.009 835.245 117.432 832.453 117.492C830.808 117.522 829.148 117.537 827.504 117.462C825.285 117.356 823.52 116.481 822.297 114.504C821.784 113.674 821.015 112.995 820.23 112.12C818.359 113.055 816.759 113.9 815.13 114.67C807.796 118.126 800.19 118.729 792.585 116.073C784.511 113.252 778.913 107.563 775.97 99.5346C772.937 91.2802 773.45 83.0409 776.529 74.8168C778.807 68.7052 782.746 63.8763 787.937 60.315C792.736 57.0254 798.168 54.7317 804.265 54.9127C807.464 55.0033 810.633 54.8222 813.847 55.5314C818.133 56.467 821.905 58.1722 825.195 61.0394C825.572 61.3714 826.025 61.6128 826.674 62.0353H826.658ZM805.095 105.51C810.98 105.812 815.597 103.775 819.249 99.61C821.739 96.7731 823.354 93.5437 824.365 89.8165C825.542 85.4554 825.104 81.3357 823.716 77.2916C822.644 74.1679 820.788 71.4516 817.906 69.5201C814.42 67.1811 810.708 66.4719 806.558 66.834C802.258 67.2113 798.56 68.841 795.724 71.8742C789.355 78.6346 788.299 86.7381 790.789 95.3848C791.679 98.4632 793.309 101.33 796.267 103.051C799.074 104.68 802.016 105.963 805.095 105.51V105.51Z" fill="black"/>
<path d="M586.95 91.8536C585.713 94.1323 586.558 96.0789 587.478 97.935C590.028 103.066 594.57 105.103 599.958 105.48C604.304 105.782 608.574 105.48 612.724 103.669C617.085 101.783 621.718 101.904 626.26 103.277C627.045 103.518 627.769 103.941 628.584 104.303C628.161 107.034 626.245 108.453 624.6 109.856C618.67 114.972 611.834 117.809 603.851 117.492C600.305 117.356 596.789 117.371 593.227 116.722C580.793 114.459 570.275 102.251 570.456 88.4432C570.607 76.5521 575.391 67.3018 584.777 60.3452C589.047 57.1914 594.118 55.5616 599.324 55.0485C605.571 54.4298 611.788 54.6411 617.719 57.4026C620.556 58.7155 623 60.4056 625.098 62.6238C629.927 67.7545 633.277 73.6246 633.73 80.8378C633.896 83.4333 634.137 86.0288 634.137 88.6243C634.137 91.25 633.368 91.8084 630.787 91.6122C629.851 91.5367 628.886 91.6424 627.935 91.6424C625.943 91.6424 623.966 91.6122 621.974 91.6122C616.165 91.6122 610.34 91.6122 604.53 91.6424C602.282 91.6424 600.018 91.7933 597.77 91.8084C594.239 91.8385 590.707 91.8084 586.935 91.8084L586.95 91.8536ZM587.644 79.2382C588.67 79.4495 589.561 79.7965 590.466 79.7965C598.781 79.872 607.11 79.9173 615.425 79.9173C616.376 79.9173 617.327 79.5249 618.217 79.3287C617.553 71.512 610.777 67.2264 605.662 66.8189C594.691 65.9437 588.942 72.0402 587.644 79.2231V79.2382Z" fill="black"/>
<path d="M358.997 55.124C362.392 54.611 365.44 55.788 368.413 57.2216C374.374 60.0887 378.01 64.9176 380.259 71.0442C382.779 77.8801 385.51 84.6405 388.166 91.4311C388.377 91.9744 388.679 92.4874 389.147 93.4532C389.977 92.4724 390.747 91.8235 391.214 90.9935C394.368 85.5007 397.477 79.9927 400.57 74.4697C401.295 73.187 401.913 71.8289 402.592 70.5312C407.044 61.9901 414.393 57.3121 423.492 55.124C424.775 54.8222 426.178 55.0788 428.035 55.0788C427.567 56.452 427.401 57.463 426.918 58.293C422.678 65.6721 418.377 73.006 414.106 80.37C410.183 87.1304 406.29 93.9059 402.381 100.666C397.748 108.709 393.116 116.768 388.498 124.826C383.745 133.11 379.006 141.41 374.223 149.664C372.065 153.407 369.832 153.754 366.466 150.977C365.863 150.479 365.35 149.876 364.776 149.347C362.105 146.827 361.019 142.527 363.328 138.618C366.889 132.552 370.375 126.456 373.891 120.359C375.928 116.828 377.935 113.297 380.063 109.585C379.067 107.155 378.086 104.756 377.12 102.356C373.182 92.6082 369.273 82.8599 365.304 73.1267C363.313 68.2223 361.26 63.3331 359.208 58.4439C358.77 57.4026 358.272 56.3765 358.997 55.0938V55.124Z" fill="black"/>
<path d="M539.054 55.2447C543.037 55.0334 547.897 54.2186 552.061 55.4258C551.639 59.4549 549.843 62.4126 547.157 65.0232C544.486 67.6036 540.985 68.4185 537.56 69.6861C537.273 71.3007 536.926 72.8097 536.73 74.3339C535.824 81.5621 534.934 88.7903 534.059 96.0034C533.319 102.115 532.625 108.242 531.825 114.338C531.705 115.304 531.116 116.224 530.558 117.613C528.958 117.296 527.645 117.235 526.483 116.798C521.504 114.881 518.833 110.973 517.595 105.993C517.309 104.861 517.429 103.579 517.58 102.387C518.335 96.4561 519.135 90.5408 519.949 84.6254C520.357 81.6224 520.855 78.6346 521.277 75.6316C521.398 74.7715 521.443 73.9113 521.519 73.0361C521.7 70.8631 521.036 69.2334 518.969 68.0865C514.638 65.6871 513.491 60.5866 515.95 55.1843C518.108 55.0183 520.689 55.0485 523.42 54.8373C523.752 53.615 524.039 52.2116 524.205 50.9742C524.929 45.1342 525.563 39.2792 526.242 33.4393C526.393 32.1415 526.483 30.8287 526.8 29.5762C527.072 28.5199 527.645 27.539 528.038 26.6034C528.717 26.4525 529.185 26.2111 529.547 26.3016C533.093 27.2976 536.398 28.6406 538.525 31.9756C540.985 35.8085 541.242 39.913 540.517 44.2439C540.08 46.8093 539.733 49.3897 539.431 51.9701C539.34 52.6945 539.084 54.2638 539.054 55.1994" fill="black"/>
<path d="M442.219 105.933C445.147 103.141 448.497 102.537 452.043 102.673C454.216 102.764 456.314 103.292 458.275 104.363C461.082 105.903 464.176 105.782 467.194 105.299C469.759 104.892 471.57 102.854 471.842 100.319C472.113 97.9048 471.434 95.9581 469.11 94.6302C464.508 92.0196 460.026 89.1826 455.454 86.5116C448.165 82.2562 446.807 73.021 450.051 66.5774C453.839 59.0927 460.207 55.4861 468.461 54.8976C474.392 54.4751 479.87 55.803 484.834 59.0625C486.539 60.1792 488.079 61.5826 489.542 62.7445C489.271 65.0835 487.837 65.9587 486.373 66.7132C482.782 68.5543 479.009 68.4184 475.176 67.6036C473.743 67.2867 472.279 67.0301 470.815 66.9698C469.804 66.9245 468.703 67.0905 467.752 67.4527C466.122 68.0563 464.447 68.8108 464.206 70.8782C463.949 73.1719 463.889 75.4656 466.168 76.9444C467.843 78.0309 469.518 79.1174 471.238 80.1285C474.075 81.8186 477.138 83.1767 479.749 85.1535C487.475 91.0085 490.81 99.7609 484.05 109.283C479.824 115.228 473.622 117.266 466.62 117.552C461.384 117.764 456.299 117.145 451.787 114.413C448.844 112.633 446.233 110.294 443.547 108.106C442.944 107.623 442.672 106.733 442.219 105.963V105.933Z" fill="black"/>
<path d="M660.002 116.496C660.002 115.032 659.851 113.493 660.032 111.984C660.575 107.246 661.239 102.537 661.873 97.8142C662.265 94.8113 662.688 91.7932 663.065 88.7903C663.714 83.5389 664.318 78.2875 664.997 73.0361C665.661 67.8752 666.4 62.7294 667.139 57.5837C667.396 55.7276 667.969 55.0787 669.795 55.0032C672.225 54.8976 674.654 54.9429 677.084 55.0032C678.563 55.0334 679.74 55.7427 680.66 56.8744C681.188 57.5384 681.717 58.2175 682.396 59.0927C683.407 58.6551 684.357 58.3382 685.233 57.8553C689.292 55.637 693.623 54.294 698.24 55.0183C701.108 55.471 703.869 56.633 706.646 57.5686C707.159 57.7346 707.521 58.3382 707.959 58.7456C707.627 60.8281 706.284 62.0504 704.82 63.1218C701.5 65.5815 697.652 66.5473 693.608 66.8943C693.261 66.9245 692.914 66.9396 692.567 66.8943C685.263 66.2756 682.818 69.6559 680.675 75.7372C679.74 78.3931 679.529 81.3206 679.076 84.1274C678.623 86.8587 678.261 89.6202 677.899 92.3667C677.386 96.3052 677.039 100.289 676.375 104.213C675.741 107.925 673.749 111.048 670.912 113.433C669.086 114.957 666.808 116.013 664.635 117.084C663.276 117.748 661.782 117.764 660.017 116.526L660.002 116.496Z" fill="black"/>
<path d="M726.278 116.903C726.233 115.53 726.022 114.172 726.157 112.844C726.565 108.891 727.093 104.952 727.606 100.998C728.557 93.7852 729.583 86.5721 730.473 79.3439C731.167 73.7756 731.68 68.1771 732.329 62.5937C732.616 60.1189 732.857 57.6139 734.155 55.2749C737.324 54.6411 739.905 55.8182 742.078 57.7497C745.262 60.5716 747.208 64.0876 746.876 68.5242C746.68 71.1951 746.363 73.851 746.076 76.522C745.488 81.9545 744.915 87.387 744.251 92.8044C743.602 98.1463 742.847 103.473 742.183 108.8C741.942 110.686 741.821 112.603 741.61 114.489C741.383 116.526 740.765 117.401 738.999 117.447C735.272 117.537 731.545 117.447 727.802 117.401C727.47 117.401 727.153 117.205 726.278 116.903V116.903Z" fill="black"/>
<path d="M69.2944 46.5227C69.2944 46.5227 69.2793 46.5377 69.2642 46.5528C69.5056 46.9603 69.6415 47.2772 69.8225 47.5639C71.0448 49.42 72.2672 51.2761 73.5046 53.1322C75.7077 56.4219 77.9864 59.6663 80.1141 63.0012C82.0456 65.9891 83.5245 69.2033 84.1281 72.7797C84.3997 74.3642 84.6261 75.9335 84.5355 77.5482C84.3092 81.0793 83.615 84.4897 81.9702 87.6888C80.7026 90.1636 79.1936 92.4272 77.1866 94.3436C76.8999 94.6153 76.5377 94.8114 76.1755 95.0831C75.919 94.7812 75.7077 94.6153 75.5568 94.3889C74.2138 92.397 72.8708 90.4051 71.5428 88.4132C70.064 86.2251 68.6002 84.0219 67.1214 81.8338C65.6576 79.6306 64.209 77.4124 62.7452 75.2243C61.0249 72.6439 59.3046 70.0785 57.5844 67.4981C56.3168 65.5967 55.0341 63.6803 53.7665 61.7638C51.0654 57.6743 48.3793 53.5698 45.6631 49.4803C44.1993 47.2772 42.6752 45.1344 41.1964 42.9312C39.8231 40.8789 38.4952 38.7965 37.122 36.7442C36.4882 35.7935 35.8393 34.8428 35.2055 33.8921L35.2357 33.8619L14.6074 2.27808L13.1587 0.0598145C13.4907 0.0598145 13.8227 0.0598145 14.1546 0.0899949C16.3729 0.195627 18.5761 0.497431 20.7793 0.814326C23.4201 1.20667 26.0307 1.85555 28.5356 2.80624C30.1352 3.39476 31.6895 4.08891 33.2287 4.79815C34.4963 5.37158 35.7488 5.97519 36.9258 6.71461C38.7517 7.86147 40.5475 9.0536 42.2527 10.3664C45.4518 12.8563 48.2133 15.7989 50.673 18.9981C51.7293 20.3713 52.6348 21.8652 53.6005 23.3139C54.8379 25.1549 56.0602 27.0261 57.2976 28.8671C57.358 28.9576 57.4334 29.0633 57.4938 29.1538C57.4938 29.1538 57.4938 29.1538 57.4938 29.1689C57.5693 29.2745 57.6447 29.3801 57.7353 29.516C57.7353 29.516 57.7353 29.516 57.7503 29.516C58.2031 29.3047 58.5501 29.1689 58.8519 28.9727C61.9907 26.8299 65.3709 25.1247 68.8266 23.5402C72.9311 21.6539 77.2168 20.3411 81.6533 19.6017C84.0074 19.1942 86.4067 19.0282 88.8061 18.8623C91.7637 18.6661 94.7214 18.9075 97.6188 19.5111C100.818 20.1751 103.987 20.9447 106.945 22.4085C109.736 23.7817 112.452 25.2454 115.048 26.9204C115.772 27.3882 116.451 27.9466 117.13 28.4747C117.719 28.9425 118.323 29.4103 118.926 29.863C118.549 29.8781 118.172 29.8932 117.779 29.9234C114.037 30.1799 110.31 30.4516 106.628 31.0853C99.7012 32.2473 93.0162 34.2845 86.5878 37.2271C83.4792 38.6606 80.4008 40.1546 77.4129 41.8145C76.1303 42.3578 74.8778 42.9614 73.6404 43.6102C72.4633 44.2289 71.3467 44.9382 70.23 45.6474C69.8829 45.8587 69.6113 46.2058 69.2793 46.5377L69.2944 46.5227Z" fill="black"/>
<path d="M196.098 28.0673H196.113C194.785 30.0894 193.442 32.0964 192.114 34.0883C189.096 38.6003 186.093 43.1123 183.09 47.6243C181.264 50.3707 179.438 53.1322 177.597 55.8635C174.383 60.6622 171.154 65.4458 167.955 70.2596C162.673 78.1971 157.407 86.1346 152.125 94.072C149.62 97.8295 147.085 101.572 144.58 105.344C141.109 110.551 137.653 115.787 134.198 120.993C131.512 125.022 128.841 129.036 126.155 133.065C123.65 136.823 121.145 140.58 118.64 144.338C117.266 146.39 115.878 148.427 114.49 150.479C114.339 150.706 114.143 150.902 114.007 151.068C113.373 151.189 113.071 150.826 112.8 150.479C111.23 148.472 109.948 146.284 108.906 143.96C108.001 141.908 107.413 139.765 107.05 137.592C106.869 136.491 106.733 135.374 106.628 134.257C106.477 132.567 106.749 130.953 106.869 129.293C107.05 126.561 107.911 124.071 108.937 121.582C109.525 120.163 110.25 118.835 111.034 117.537C111.547 116.707 112.091 115.877 112.634 115.063C114.369 112.497 116.074 109.917 117.795 107.336C120.073 103.926 122.352 100.516 124.615 97.1052C126.17 94.7963 127.709 92.4875 129.263 90.1637C130.561 88.2321 131.844 86.2855 133.141 84.3539C134.711 82.0149 136.28 79.6759 137.85 77.3369C138.906 75.7374 139.962 74.1529 141.034 72.5533C141.652 71.6328 142.286 70.7123 142.89 69.7918C142.935 69.7315 142.965 69.6711 143.01 69.6107C143.01 69.6107 143.026 69.6107 143.041 69.6258L160.364 43.5801C160.892 42.8105 161.421 42.0258 161.934 41.2411C163.216 39.3397 164.484 37.4233 165.751 35.5219C167.26 33.2282 168.785 30.9496 170.309 28.6709C171.576 26.7696 172.859 24.8531 174.142 22.9668C174.941 21.7898 175.711 20.5976 176.571 19.4508C178.563 16.7647 180.781 14.305 183.286 12.0717C186.003 9.64213 188.96 7.58986 192.144 5.86957C195.54 4.02856 199.086 2.50445 202.904 1.70467C205.137 1.23687 207.385 0.708711 209.649 0.421997C211.248 0.225824 212.335 0.105102 214.599 0.150372L196.173 28.1126L196.098 28.0673Z" fill="black"/>
<path d="M160.289 43.5499L142.965 69.5957C142.965 69.5957 142.95 69.5957 142.935 69.5806C143.327 68.977 143.674 68.3583 143.991 67.8452C143.735 67.136 143.237 67.136 142.814 67.0454C138.574 66.2456 134.59 64.7215 130.742 62.79C125.279 60.0586 120.179 56.7539 115.395 52.936C113.313 51.2761 111.23 49.586 109.163 47.8808C108.363 47.2168 107.594 46.5076 106.824 45.7984C102.614 41.9805 97.7849 39.4303 92.0657 38.9172C88.8364 38.6305 85.6071 38.9021 82.4683 39.8981C80.748 40.4413 79.0579 41.06 77.4131 41.7844C80.401 40.1244 83.4794 38.6305 86.588 37.1969C93.0013 34.2543 99.6863 32.2171 106.628 31.0552C110.31 30.4214 114.052 30.1649 117.779 29.8932C118.157 29.8631 118.534 29.848 118.926 29.8329C119.53 30.3007 120.149 30.7685 120.752 31.2363C124.193 33.9374 127.528 36.7744 131.346 38.9474C133.971 40.4413 136.537 42.0409 139.238 43.399C142.316 44.9533 145.591 45.9945 149.016 46.5981C151.521 47.0358 154.041 47.2319 156.561 47.4734C157.271 47.5488 157.754 47.2923 158.146 46.7189C158.855 45.6625 159.579 44.5911 160.289 43.5197V43.5499Z" fill="url(#paint0_linear_90_76)"/>
<path d="M35.2508 33.8619L35.2206 33.8921C33.2589 30.9797 31.2972 28.0522 29.3505 25.1398C28.264 23.5251 27.1926 21.8954 26.1665 20.2505C25.6987 19.5111 25.1252 19.2093 24.2651 19.2395C22.6354 19.2697 21.0056 19.2395 19.3608 19.2395C15.1959 19.2998 11.363 18.153 7.98274 15.7687C4.3309 13.2034 1.8561 9.73264 0.63379 5.43192C0.271624 4.20961 0 2.95712 0 1.64427C0 1.17647 0.0301805 0.633222 0.0754512 0.0447022C0.63379 0.0447022 1.20722 0.0597925 1.75047 0.0447022C4.52707 0.0145218 7.31877 -0.0458392 10.0954 0.0597925C11.1215 0.105063 12.1476 0.0447022 13.1587 0.0447022L35.2508 33.8468V33.8619Z" fill="url(#paint1_linear_90_76)"/>
<path d="M227.44 2.85146C227.002 5.71861 225.991 8.37449 224.422 10.7889C223.019 12.977 221.193 14.7878 219.005 16.1912C215.7 18.319 212.048 19.2847 208.125 19.2395C206.525 19.2244 204.925 19.2546 203.326 19.2395C202.481 19.2395 201.862 19.5111 201.379 20.2203C200.489 21.5935 199.553 22.9366 198.648 24.2796C197.803 25.5472 196.943 26.8148 196.113 28.0823H196.098L214.523 0.105039C214.674 0.120129 222.822 0.0446777 225.916 0.0446777C226.384 0.0446777 227.063 0.0446777 227.546 0.0446777C227.908 0.980273 227.561 2.00641 227.44 2.83637V2.85146Z" fill="url(#paint2_linear_90_76)"/>
<path d="M742.515 43.8214C747.066 43.8214 750.755 40.1326 750.755 35.5822C750.755 31.0317 747.066 27.3429 742.515 27.3429C737.965 27.3429 734.276 31.0317 734.276 35.5822C734.276 40.1326 737.965 43.8214 742.515 43.8214Z" fill="black"/>
<defs>
<linearGradient id="paint0_linear_90_76" x1="67.5139" y1="49.7218" x2="148.714" y2="49.7218" gradientUnits="userSpaceOnUse">
<stop offset="0.31" stop-color="#B3B3B3"/>
<stop offset="0.35" stop-color="#A3A3A3"/>
<stop offset="0.56" stop-color="#5E5E5E"/>
<stop offset="0.72" stop-color="#2B2B2B"/>
<stop offset="0.85" stop-color="#0B0B0B"/>
<stop offset="0.92"/>
</linearGradient>
<linearGradient id="paint1_linear_90_76" x1="29.0487" y1="12.7658" x2="6.57935" y2="21.0352" gradientUnits="userSpaceOnUse">
<stop offset="0.3" stop-color="#B3B3B3"/>
<stop offset="0.36" stop-color="#959595"/>
<stop offset="0.46" stop-color="#686868"/>
<stop offset="0.57" stop-color="#424242"/>
<stop offset="0.67" stop-color="#252525"/>
<stop offset="0.77" stop-color="#101010"/>
<stop offset="0.87" stop-color="#040404"/>
<stop offset="0.97"/>
</linearGradient>
<linearGradient id="paint2_linear_90_76" x1="196.098" y1="14.0635" x2="227.712" y2="14.0635" gradientUnits="userSpaceOnUse">
<stop offset="0.3" stop-color="#B3B3B3"/>
<stop offset="0.36" stop-color="#959595"/>
<stop offset="0.46" stop-color="#686868"/>
<stop offset="0.57" stop-color="#424242"/>
<stop offset="0.67" stop-color="#252525"/>
<stop offset="0.77" stop-color="#101010"/>
<stop offset="0.87" stop-color="#040404"/>
<stop offset="0.97"/>
</linearGradient>
</defs>
</svg>
