<svg width="300" height="52" viewBox="0 0 300 52" fill="none" xmlns="http://www.w3.org/2000/svg">
<path d="M77.5716 14.3872C82.0428 14.5886 81.959 15.3412 86.9039 19.2835C88.565 20.6091 90.3359 21.7567 92.2328 22.7051C93.569 23.3758 94.9524 23.9051 96.4246 24.1828C99.2345 24.7839 102.66 24.7604 105.36 24.1828C112.091 22.9131 116.441 15.0025 122.982 14.4157C124.103 14.3161 125.224 14.4105 126.314 14.7563C126.911 14.9449 127.498 15.1598 128.069 15.4112C127.032 14.8349 125.963 14.3161 124.884 13.8183C122.657 12.7966 120.335 12.0892 117.925 11.6858C116.699 11.4746 115.453 11.3841 114.212 11.2938H114.211L114.053 11.2822C113.922 11.2718 113.791 11.2666 113.655 11.2613C113.556 11.3382 113.455 11.4151 113.355 11.4921L113.348 11.4971C113.027 11.7423 112.714 11.9903 112.401 12.2396C109.804 14.3073 106.536 16.496 103.207 17.0828C93.3085 18.8118 88.3309 7.58159 78.0622 7.58159C66.9198 7.58159 64.0466 17.3463 54.8313 17.348C49.6709 17.1786 45.4136 14.2668 41.7953 11.4971C41.6925 11.4185 41.5899 11.3399 41.4884 11.2613C41.3523 11.2666 41.2214 11.2718 41.0901 11.2822L40.9321 11.2938C39.6903 11.3841 38.4446 11.4746 37.2181 11.6858C34.8077 12.0892 32.4865 12.7966 30.2595 13.8183C29.1802 14.3161 28.1112 14.8349 27.0737 15.4112C27.6449 15.1598 28.2317 14.9449 28.8291 14.7563C29.919 14.4105 31.0403 14.3161 32.1616 14.4157C34.1475 14.5938 35.8243 15.4794 37.2862 16.8051L37.297 16.8151C37.3634 16.8762 37.4297 16.9373 37.4962 16.9982C37.5624 17.0586 37.6287 17.1188 37.6952 17.1786C37.7732 17.2486 37.8516 17.318 37.9307 17.3862C37.9862 17.434 38.0421 17.4814 38.0984 17.5281C38.5857 17.9302 39.0756 18.3297 39.5662 18.7253C45.1552 23.2316 51.4186 25.7445 58.7186 24.1828C60.1909 23.9051 61.5742 23.3758 62.9104 22.7051C68.8599 19.5246 74.4106 14.3872 77.5716 14.3872Z" fill="url(#paint0_linear_41_36)"/>
<path d="M24.2543 17.0565C24.2543 17.0565 24.2491 17.0618 24.2439 17.067C24.3277 17.2085 23.8894 16.7526 23.8894 16.7526C23.8894 16.7526 22.4383 14.4183 20.3718 11.3218L20.6284 10.9626C20.6284 10.9626 22.892 9.62643 24.0919 9.07627C25.5171 8.42129 27.0053 7.96541 28.5458 7.70866C29.3632 7.5672 30.1963 7.50956 31.0295 7.45192C32.0565 7.38379 33.0835 7.46765 34.0896 7.67724C35.2004 7.90777 36.3008 8.175 37.3279 8.68328C38.2971 9.1601 39.2402 9.66838 40.1416 10.25C40.393 10.4124 40.6287 10.6063 40.8645 10.7897C41.069 10.9521 41.2788 11.1146 41.4881 11.2718C41.3572 11.277 41.2263 11.2822 41.0899 11.2927C39.7905 11.3818 38.4964 11.4761 37.2179 11.6962C34.8126 12.0996 32.4914 12.807 30.2592 13.8288C29.1798 14.3266 28.1109 14.8453 27.0734 15.4217C26.628 15.6103 26.1931 15.8199 25.7634 16.0453C25.3547 16.2601 24.967 16.5063 24.5792 16.7526C24.4587 16.826 24.3644 16.9465 24.2491 17.0618L24.2543 17.0565Z" fill="white"/>
<path d="M130.889 17.0565C130.889 17.0565 130.894 17.0618 130.899 17.067C130.815 17.2085 131.254 16.7526 131.254 16.7526C131.254 16.7526 132.705 14.4183 134.771 11.3218L134.515 10.9626C134.515 10.9626 132.251 9.62643 131.051 9.07627C129.626 8.42129 128.138 7.96541 126.597 7.70866C125.78 7.5672 124.947 7.50956 124.114 7.45192C123.087 7.38379 122.06 7.46765 121.054 7.67724C119.943 7.90777 118.842 8.175 117.815 8.68328C116.846 9.1601 115.903 9.66838 115.001 10.25C114.75 10.4124 114.514 10.6063 114.279 10.7897C114.074 10.9521 113.864 11.1146 113.655 11.2718C113.786 11.277 113.917 11.2822 114.053 11.2927C115.353 11.3818 116.647 11.4761 117.925 11.6962C120.33 12.0996 122.652 12.807 124.884 13.8288C125.963 14.3266 127.032 14.8453 128.07 15.4217C128.515 15.6103 128.95 15.8199 129.38 16.0453C129.788 16.2601 130.176 16.5063 130.564 16.7526C130.684 16.826 130.779 16.9465 130.894 17.0618L130.889 17.0565Z" fill="white"/>
<path d="M71.2803 17.2094C71.2803 17.2094 71.275 17.2146 71.2698 17.2199C71.3536 17.3613 70.9153 16.9055 70.9153 16.9055C70.9153 16.9055 69.2982 14.4051 67.2317 11.3085C69.836 9.73401 71.9808 7.72912 78.0554 7.60475C79.0824 7.53662 80.1094 7.62048 81.1155 7.83007C82.2264 8.0606 83.3268 8.32783 84.3539 8.83611C85.323 9.31293 86.2661 9.82121 87.1675 10.4028C87.4189 10.5653 87.6547 10.7591 87.8905 10.9425C88.095 11.105 88.3047 11.2674 88.5141 11.4246C88.3832 11.4298 88.2523 11.4351 88.1158 11.4455C86.8165 11.5346 85.5223 11.6289 84.2438 11.849C81.8386 12.2525 79.5173 12.9599 77.2852 13.9816C76.2058 14.4794 75.1368 14.9981 74.0993 15.5745C73.654 15.7632 73.219 15.9728 72.7894 16.1981C72.3806 16.4129 71.9929 16.6592 71.6052 16.9055C71.4846 16.9788 71.3903 17.0993 71.275 17.2146L71.2803 17.2094Z" fill="white"/>
<defs>
<linearGradient id="paint0_linear_41_36" x1="27.0737" y1="15.7438" x2="125.747" y2="15.7438" gradientUnits="userSpaceOnUse">
<stop stop-color="white" stop-opacity="0"/>
<stop offset="0.1495" stop-color="white"/>
<stop offset="0.3119" stop-color="white"/>
<stop offset="0.467877" stop-color="white"/>
<stop offset="0.517947" stop-color="white" stop-opacity="0"/>
<stop offset="0.674513" stop-color="white"/>
<stop offset="0.86814" stop-color="white"/>
<stop offset="1" stop-color="white" stop-opacity="0"/>
</linearGradient>
</defs>
</svg>
